<svg id="svg" version="1.1" xmlns="http://www.w3.org/2000/svg" xmlns:xlink="http://www.w3.org/1999/xlink" width="400" height="400" viewBox="0, 0, 400,400"><g id="svgg"><path id="path0" d="M32.631 14.441 C 28.654 15.809,25.552 18.468,24.048 21.800 C 23.750 22.460,23.330 23.341,23.114 23.758 C 22.611 24.729,22.618 32.079,23.123 33.057 C 23.334 33.466,23.753 34.327,24.053 34.972 C 25.429 37.920,28.720 40.658,32.919 42.349 C 35.584 43.423,41.581 42.753,44.104 41.100 C 44.691 40.715,45.304 40.400,45.466 40.400 C 45.629 40.400,46.562 39.552,47.541 38.515 C 57.899 27.550,46.769 9.579,32.631 14.441 M359.110 14.192 C 346.450 17.677,344.523 35.540,356.200 41.163 C 357.300 41.693,358.513 42.278,358.895 42.463 C 359.818 42.911,366.224 42.896,367.105 42.444 C 367.487 42.248,368.670 41.672,369.733 41.164 C 371.727 40.211,375.020 36.958,375.900 35.072 C 376.175 34.482,376.622 33.529,376.893 32.953 C 377.813 30.998,377.463 24.917,376.285 22.400 C 373.156 15.713,366.003 12.295,359.110 14.192 M125.600 65.228 C 121.992 65.527,114.792 66.808,112.200 67.611 C 106.661 69.327,104.512 70.173,99.400 72.651 C 95.984 74.307,94.243 75.302,94.067 75.700 C 93.993 75.865,93.753 76.000,93.532 76.000 C 93.311 76.000,92.299 76.585,91.283 77.300 C 82.612 83.401,75.229 90.914,70.600 98.345 C 70.380 98.698,69.727 99.710,69.149 100.594 C 67.822 102.623,63.600 111.378,63.600 112.099 C 63.600 112.397,63.451 112.811,63.270 113.020 C 63.088 113.229,62.707 114.210,62.423 115.200 C 62.139 116.190,61.769 117.450,61.600 118.000 C 60.698 120.935,60.095 123.795,59.195 129.400 C 58.606 133.065,58.898 189.094,59.524 192.600 C 60.076 195.691,60.636 198.242,61.147 200.000 C 61.371 200.770,61.724 202.030,61.930 202.800 C 63.443 208.449,69.626 221.105,72.137 223.696 C 72.406 223.973,73.067 224.830,73.606 225.600 C 81.964 237.545,98.030 248.349,113.433 252.383 C 122.410 254.735,117.145 254.600,200.000 254.600 C 282.814 254.600,277.597 254.733,286.524 252.395 C 301.500 248.472,314.732 239.864,325.252 227.200 C 326.962 225.141,331.200 219.054,331.200 218.656 C 331.200 218.558,331.795 217.425,332.521 216.138 C 336.376 209.317,338.905 201.607,340.774 190.976 C 341.357 187.657,341.357 131.943,340.774 128.624 C 339.118 119.205,337.557 113.995,334.378 107.277 C 332.359 103.010,329.092 97.273,328.002 96.082 C 327.659 95.707,326.938 94.770,326.401 94.000 C 325.439 92.623,324.366 91.371,320.800 87.465 C 318.678 85.142,312.337 79.758,309.169 77.590 C 303.870 73.965,296.528 70.355,290.800 68.558 C 289.810 68.248,288.460 67.824,287.800 67.616 C 285.065 66.756,278.148 65.571,273.727 65.204 C 268.067 64.735,131.267 64.757,125.600 65.228 M132.271 98.006 C 140.081 99.021,145.891 101.456,151.283 105.974 C 153.408 107.755,157.661 112.437,157.960 113.325 C 158.048 113.586,158.228 113.890,158.360 114.000 C 159.042 114.569,161.287 119.126,162.201 121.800 C 164.366 128.132,164.363 137.615,162.194 143.800 C 161.630 145.409,160.362 148.226,159.764 149.200 C 159.427 149.750,159.051 150.515,158.929 150.900 C 158.807 151.285,158.548 151.600,158.353 151.600 C 158.159 151.600,158.000 151.778,158.000 151.995 C 158.000 153.137,151.882 159.368,148.531 161.638 C 130.496 173.859,104.975 166.349,96.993 146.471 C 96.403 145.002,95.758 143.487,95.560 143.105 C 95.362 142.723,95.200 142.037,95.200 141.579 C 95.200 141.122,95.008 140.389,94.773 139.950 C 94.225 138.925,94.199 127.280,94.741 125.517 C 94.964 124.793,95.378 123.390,95.661 122.400 C 97.396 116.343,102.431 109.111,107.600 105.250 C 108.370 104.675,109.090 104.098,109.200 103.968 C 111.292 101.492,120.599 98.471,128.671 97.648 C 128.930 97.622,130.550 97.783,132.271 98.006 M275.092 98.186 C 280.785 98.937,289.151 102.016,290.800 103.968 C 290.910 104.098,291.694 104.722,292.541 105.354 C 297.783 109.264,302.591 116.231,304.374 122.500 C 304.608 123.325,305.005 124.666,305.255 125.479 C 305.830 127.353,305.851 138.185,305.282 140.021 C 305.047 140.779,304.622 142.210,304.338 143.200 C 296.696 169.834,258.719 176.283,243.093 153.600 C 242.411 152.610,241.751 151.710,241.626 151.600 C 240.984 151.033,238.719 146.408,237.806 143.800 C 235.637 137.605,235.634 128.132,237.799 121.800 C 238.713 119.126,240.958 114.569,241.640 114.000 C 241.772 113.890,241.952 113.586,242.040 113.325 C 242.339 112.437,246.592 107.755,248.717 105.974 C 254.008 101.540,259.308 99.258,266.800 98.187 C 268.670 97.919,270.301 97.678,270.425 97.650 C 270.549 97.623,272.650 97.864,275.092 98.186 M244.613 185.387 C 249.200 186.581,254.302 189.830,256.797 193.144 C 257.566 194.165,258.286 195.090,258.397 195.200 C 258.806 195.603,260.110 198.098,260.698 199.600 C 264.891 210.318,259.715 223.876,249.600 228.667 C 244.343 231.157,247.681 231.000,200.000 231.000 L 156.200 231.000 153.600 230.048 C 152.170 229.524,150.522 228.759,149.938 228.348 C 149.354 227.937,148.665 227.600,148.407 227.600 C 148.149 227.600,146.539 226.185,144.831 224.456 C 139.919 219.484,137.888 214.671,137.888 208.000 C 137.888 204.139,138.161 202.516,139.302 199.600 C 139.848 198.205,141.223 195.575,141.603 195.200 C 141.714 195.090,142.434 194.165,143.203 193.144 C 145.599 189.960,150.774 186.602,155.107 185.417 C 158.101 184.598,241.478 184.570,244.613 185.387 M166.400 199.159 C 160.828 199.770,154.772 204.665,153.004 209.988 C 152.056 212.841,153.133 214.748,156.796 216.703 L 158.476 217.600 200.000 217.600 L 241.524 217.600 243.212 216.700 C 245.178 215.651,246.870 214.021,247.587 212.485 C 247.866 211.888,248.252 211.087,248.447 210.705 C 248.930 209.756,248.894 205.705,248.400 205.400 C 248.180 205.264,248.000 204.881,248.000 204.548 C 248.000 203.325,245.610 200.476,243.882 199.640 C 242.150 198.801,173.544 198.376,166.400 199.159 M182.912 289.770 C 174.567 294.391,175.469 305.655,184.428 308.713 C 186.358 309.371,213.854 309.404,215.481 308.750 C 218.931 307.363,219.612 306.866,221.173 304.600 C 224.495 299.773,222.868 293.019,217.689 290.148 L 215.979 289.200 199.889 289.239 C 187.977 289.268,183.570 289.406,182.912 289.770 " stroke="none" fill="#60b1f2" fill-rule="evenodd"></path><path id="path1" d="M30.000 0.800 C 30.000 1.020,29.460 1.200,28.800 1.200 C 28.140 1.200,27.600 1.380,27.600 1.600 C 27.600 1.820,27.150 2.000,26.600 2.000 C 26.050 2.000,25.600 2.180,25.600 2.400 C 25.600 2.620,25.240 2.800,24.800 2.800 C 24.360 2.800,24.000 2.980,24.000 3.200 C 24.000 3.420,23.640 3.600,23.200 3.600 C 22.760 3.600,22.400 3.750,22.400 3.932 C 22.400 4.115,21.907 4.520,21.305 4.832 C 20.288 5.359,18.896 6.574,15.100 10.246 C 14.275 11.044,13.600 11.945,13.600 12.248 C 13.600 12.552,13.439 12.800,13.242 12.800 C 12.815 12.800,10.400 17.687,10.400 18.551 C 10.400 18.882,10.239 19.252,10.042 19.374 C 9.171 19.913,8.385 32.945,9.177 33.737 C 9.410 33.970,9.600 34.743,9.600 35.456 C 9.600 36.169,9.780 36.864,10.000 37.000 C 10.220 37.136,10.400 37.580,10.400 37.986 C 10.400 38.784,12.009 42.115,12.500 42.333 C 12.665 42.407,12.800 42.730,12.800 43.052 C 12.800 43.373,13.250 44.086,13.800 44.636 C 14.350 45.186,14.800 45.796,14.800 45.992 C 14.800 46.505,18.668 50.400,19.178 50.400 C 19.414 50.400,20.172 50.940,20.863 51.600 C 21.554 52.260,22.362 52.800,22.659 52.800 C 22.957 52.800,23.200 52.980,23.200 53.200 C 23.200 53.420,23.560 53.600,24.000 53.600 C 24.440 53.600,24.800 53.780,24.800 54.000 C 24.800 54.220,25.149 54.400,25.576 54.400 C 26.003 54.400,26.464 54.580,26.600 54.800 C 26.736 55.020,27.242 55.206,27.724 55.213 C 30.123 55.248,30.000 53.786,30.000 82.294 L 30.000 108.299 25.394 108.476 C 22.605 108.582,20.601 108.839,20.314 109.126 C 20.053 109.387,19.516 109.600,19.120 109.600 C 18.724 109.600,18.400 109.780,18.400 110.000 C 18.400 110.220,18.080 110.400,17.688 110.400 C 17.297 110.400,16.717 110.760,16.400 111.200 C 16.083 111.640,15.612 112.000,15.353 112.000 C 14.927 112.000,13.596 113.379,12.000 115.473 C 11.001 116.784,10.400 117.956,10.400 118.595 C 10.400 118.928,10.220 119.200,10.000 119.200 C 9.780 119.200,9.600 119.729,9.600 120.376 C 9.600 121.023,9.420 121.664,9.200 121.800 C 8.592 122.176,8.656 196.502,9.266 198.372 C 10.092 200.901,11.333 203.600,11.671 203.600 C 11.852 203.600,12.000 203.818,12.000 204.085 C 12.000 204.801,15.264 208.000,15.995 208.000 C 16.341 208.000,16.883 208.360,17.200 208.800 C 17.517 209.240,18.097 209.600,18.488 209.600 C 18.880 209.600,19.200 209.780,19.200 210.000 C 19.200 210.220,19.740 210.400,20.400 210.400 C 21.060 210.400,21.600 210.580,21.600 210.800 C 21.600 211.059,26.667 211.200,36.000 211.200 C 50.133 211.200,50.400 211.215,50.400 212.000 C 50.400 212.440,50.580 212.800,50.800 212.800 C 51.020 212.800,51.200 213.149,51.200 213.576 C 51.200 214.003,51.380 214.464,51.600 214.600 C 51.820 214.736,52.000 215.287,52.000 215.824 C 52.000 216.361,52.180 216.800,52.400 216.800 C 52.620 216.800,52.800 217.160,52.800 217.600 C 52.800 218.040,52.980 218.400,53.200 218.400 C 53.420 218.400,53.600 218.760,53.600 219.200 C 53.600 219.640,53.780 220.000,54.000 220.000 C 54.220 220.000,54.400 220.360,54.400 220.800 C 54.400 221.240,54.580 221.600,54.800 221.600 C 55.020 221.600,55.200 221.960,55.200 222.400 C 55.200 222.840,55.380 223.200,55.600 223.200 C 55.820 223.200,56.000 223.470,56.000 223.800 C 56.000 224.130,56.180 224.400,56.400 224.400 C 56.620 224.400,56.800 224.694,56.800 225.053 C 56.800 225.412,57.131 225.997,57.536 226.353 C 57.941 226.709,58.394 227.495,58.544 228.100 C 58.693 228.705,58.992 229.200,59.208 229.200 C 59.423 229.200,59.600 229.425,59.600 229.700 C 59.601 229.975,60.051 230.723,60.600 231.362 C 61.150 232.001,61.600 232.668,61.600 232.844 C 61.600 233.020,62.009 233.577,62.509 234.082 C 63.008 234.587,63.855 235.630,64.390 236.400 C 64.926 237.170,66.795 239.150,68.545 240.800 C 70.294 242.450,73.030 245.105,74.624 246.700 C 76.218 248.295,77.632 249.600,77.765 249.600 C 77.898 249.600,78.572 250.140,79.263 250.800 C 79.954 251.460,80.722 252.000,80.971 252.000 C 81.220 252.000,81.683 252.360,82.000 252.800 C 82.317 253.240,82.857 253.600,83.200 253.600 C 83.543 253.600,84.083 253.960,84.400 254.400 C 84.717 254.840,85.297 255.200,85.688 255.200 C 86.080 255.200,86.400 255.342,86.400 255.516 C 86.400 255.821,89.183 257.304,91.900 258.448 C 92.615 258.749,93.200 259.131,93.200 259.298 C 93.200 259.464,93.560 259.600,94.000 259.600 C 94.440 259.600,94.800 259.780,94.800 260.000 C 94.800 260.220,95.160 260.400,95.600 260.400 C 96.040 260.400,96.400 260.580,96.400 260.800 C 96.400 261.020,96.760 261.200,97.200 261.200 C 97.640 261.200,98.000 261.380,98.000 261.600 C 98.000 261.820,98.540 262.000,99.200 262.000 C 99.860 262.000,100.400 262.180,100.400 262.400 C 100.400 262.620,100.760 262.800,101.200 262.800 C 101.640 262.800,102.000 262.980,102.000 263.200 C 102.000 263.420,102.540 263.600,103.200 263.600 C 103.860 263.600,104.400 263.780,104.400 264.000 C 104.400 264.220,104.940 264.400,105.600 264.400 C 106.260 264.400,106.800 264.580,106.800 264.800 C 106.800 265.020,107.419 265.200,108.176 265.200 C 108.933 265.200,109.664 265.380,109.800 265.600 C 109.936 265.820,110.656 266.000,111.400 266.000 C 112.144 266.000,112.864 266.180,113.000 266.400 C 113.136 266.620,114.036 266.800,115.000 266.800 C 115.964 266.800,116.864 266.980,117.000 267.200 C 117.136 267.420,118.587 267.600,120.224 267.600 C 121.941 267.600,123.200 267.769,123.200 268.000 C 123.200 268.265,149.059 268.400,199.976 268.400 C 250.729 268.400,276.837 268.264,277.000 268.000 C 277.136 267.780,278.587 267.600,280.224 267.600 C 281.941 267.600,283.200 267.431,283.200 267.200 C 283.200 266.980,283.999 266.800,284.976 266.800 C 285.953 266.800,286.864 266.620,287.000 266.400 C 287.136 266.180,287.856 266.000,288.600 266.000 C 289.344 266.000,290.064 265.820,290.200 265.600 C 290.336 265.380,291.067 265.200,291.824 265.200 C 292.581 265.200,293.200 265.020,293.200 264.800 C 293.200 264.580,293.740 264.400,294.400 264.400 C 295.060 264.400,295.600 264.220,295.600 264.000 C 295.600 263.780,296.140 263.600,296.800 263.600 C 297.460 263.600,298.000 263.420,298.000 263.200 C 298.000 262.980,298.360 262.800,298.800 262.800 C 299.240 262.800,299.600 262.620,299.600 262.400 C 299.600 262.180,300.140 262.000,300.800 262.000 C 301.460 262.000,302.000 261.820,302.000 261.600 C 302.000 261.380,302.360 261.200,302.800 261.200 C 303.240 261.200,303.600 261.020,303.600 260.800 C 303.600 260.580,303.960 260.400,304.400 260.400 C 304.840 260.400,305.200 260.220,305.200 260.000 C 305.200 259.780,305.515 259.596,305.900 259.591 C 306.285 259.586,307.050 259.230,307.600 258.800 C 308.150 258.370,308.762 258.014,308.960 258.009 C 309.653 257.992,313.600 255.903,313.600 255.553 C 313.600 255.359,313.920 255.200,314.312 255.200 C 314.703 255.200,315.283 254.840,315.600 254.400 C 315.917 253.960,316.457 253.600,316.800 253.600 C 317.143 253.600,317.683 253.240,318.000 252.800 C 318.317 252.360,318.780 252.000,319.029 252.000 C 319.278 252.000,320.046 251.460,320.737 250.800 C 321.428 250.140,322.086 249.600,322.200 249.600 C 322.314 249.600,324.314 247.755,326.644 245.500 C 328.975 243.245,331.944 240.375,333.241 239.122 C 334.538 237.869,335.600 236.692,335.600 236.506 C 335.600 236.320,336.320 235.372,337.200 234.400 C 338.080 233.428,338.800 232.400,338.800 232.116 C 338.800 231.832,338.950 231.600,339.132 231.600 C 339.315 231.600,339.720 231.105,340.032 230.500 C 340.345 229.895,340.825 229.162,341.100 228.871 C 341.375 228.581,341.600 228.035,341.600 227.660 C 341.600 227.284,341.960 226.717,342.400 226.400 C 342.840 226.083,343.200 225.503,343.200 225.112 C 343.200 224.720,343.380 224.400,343.600 224.400 C 343.820 224.400,344.000 224.130,344.000 223.800 C 344.000 223.470,344.180 223.200,344.400 223.200 C 344.620 223.200,344.800 222.840,344.800 222.400 C 344.800 221.960,344.980 221.600,345.200 221.600 C 345.420 221.600,345.600 221.240,345.600 220.800 C 345.600 220.360,345.780 220.000,346.000 220.000 C 346.220 220.000,346.400 219.640,346.400 219.200 C 346.400 218.760,346.580 218.400,346.800 218.400 C 347.020 218.400,347.200 218.040,347.200 217.600 C 347.200 217.160,347.380 216.800,347.600 216.800 C 347.820 216.800,348.000 216.361,348.000 215.824 C 348.000 215.287,348.180 214.736,348.400 214.600 C 348.620 214.464,348.800 214.003,348.800 213.576 C 348.800 213.149,348.980 212.800,349.200 212.800 C 349.420 212.800,349.600 212.440,349.600 212.000 C 349.600 211.267,349.867 211.200,352.800 211.200 L 356.000 211.200 356.000 228.000 C 356.000 238.933,355.860 244.800,355.600 244.800 C 355.378 244.800,355.200 245.867,355.200 247.200 C 355.200 248.533,355.022 249.600,354.800 249.600 C 354.580 249.600,354.400 250.320,354.400 251.200 C 354.400 252.080,354.220 252.800,354.000 252.800 C 353.780 252.800,353.600 253.340,353.600 254.000 C 353.600 254.660,353.420 255.200,353.200 255.200 C 352.980 255.200,352.800 255.740,352.800 256.400 C 352.800 257.060,352.620 257.600,352.400 257.600 C 352.180 257.600,352.000 257.960,352.000 258.400 C 352.000 258.840,351.820 259.200,351.600 259.200 C 351.380 259.200,351.200 259.650,351.200 260.200 C 351.200 260.750,351.020 261.200,350.800 261.200 C 350.580 261.200,350.400 261.560,350.400 262.000 C 350.400 262.440,350.220 262.800,350.000 262.800 C 349.780 262.800,349.600 263.078,349.600 263.417 C 349.600 263.756,349.240 264.420,348.800 264.892 C 348.360 265.364,348.000 265.987,348.000 266.275 C 348.000 266.564,347.820 266.800,347.600 266.800 C 347.380 266.800,347.200 267.025,347.199 267.300 C 347.199 267.575,346.659 268.430,346.000 269.200 C 345.341 269.970,344.801 270.729,344.801 270.887 C 344.800 271.272,342.599 273.743,340.462 275.760 C 339.506 276.662,337.935 278.165,336.972 279.100 C 336.009 280.035,335.081 280.800,334.911 280.801 C 334.740 280.801,333.970 281.341,333.200 282.000 C 332.430 282.659,331.575 283.199,331.300 283.199 C 331.025 283.200,330.800 283.380,330.800 283.600 C 330.800 283.820,330.564 284.000,330.275 284.000 C 329.987 284.000,329.364 284.360,328.892 284.800 C 328.420 285.240,327.756 285.600,327.417 285.600 C 327.078 285.600,326.800 285.780,326.800 286.000 C 326.800 286.220,326.530 286.400,326.200 286.400 C 325.870 286.400,325.600 286.580,325.600 286.800 C 325.600 287.020,325.240 287.200,324.800 287.200 C 324.360 287.200,324.000 287.380,324.000 287.600 C 324.000 287.820,323.460 288.000,322.800 288.000 C 322.140 288.000,321.600 288.180,321.600 288.400 C 321.600 288.620,321.161 288.800,320.624 288.800 C 320.087 288.800,319.536 288.980,319.400 289.200 C 319.264 289.420,318.724 289.600,318.200 289.600 C 317.676 289.600,317.136 289.780,317.000 290.000 C 316.864 290.220,316.253 290.400,315.643 290.400 C 315.033 290.400,314.399 290.535,314.234 290.700 C 312.700 292.239,235.600 292.729,235.600 291.200 C 235.600 290.760,235.420 290.400,235.200 290.400 C 234.980 290.400,234.800 290.040,234.800 289.600 C 234.800 289.160,234.620 288.800,234.400 288.800 C 234.180 288.800,234.000 288.440,234.000 288.000 C 234.000 287.560,233.820 287.200,233.600 287.200 C 233.380 287.200,233.200 286.928,233.200 286.596 C 233.200 286.264,232.660 285.428,232.000 284.737 C 231.340 284.046,230.800 283.304,230.800 283.087 C 230.800 282.650,228.776 280.801,228.296 280.800 C 228.129 280.800,227.428 280.260,226.737 279.600 C 226.046 278.940,225.238 278.400,224.941 278.400 C 224.643 278.400,224.399 278.265,224.397 278.100 C 224.393 277.739,222.455 276.800,221.715 276.800 C 221.426 276.800,220.877 276.632,220.495 276.427 C 218.582 275.398,215.271 275.200,200.000 275.200 C 184.729 275.200,181.418 275.398,179.505 276.427 C 179.123 276.632,178.574 276.800,178.285 276.800 C 177.545 276.800,175.607 277.739,175.603 278.100 C 175.601 278.265,175.375 278.400,175.100 278.400 C 174.825 278.401,174.060 278.866,173.400 279.435 C 172.740 280.004,171.729 280.748,171.154 281.089 C 170.579 281.430,169.801 282.229,169.425 282.865 C 169.049 283.501,168.305 284.459,167.771 284.993 C 167.237 285.527,166.800 286.242,166.800 286.582 C 166.800 286.922,166.620 287.200,166.400 287.200 C 166.180 287.200,166.000 287.560,166.000 288.000 C 166.000 288.440,165.820 288.800,165.600 288.800 C 165.380 288.800,165.200 289.160,165.200 289.600 C 165.200 290.040,165.020 290.400,164.800 290.400 C 164.580 290.400,164.400 290.929,164.400 291.576 C 164.400 292.223,164.220 292.864,164.000 293.000 C 163.466 293.330,163.466 304.670,164.000 305.000 C 164.220 305.136,164.400 305.676,164.400 306.200 C 164.400 306.724,164.580 307.264,164.800 307.400 C 165.020 307.536,165.200 308.087,165.200 308.624 C 165.200 309.161,165.380 309.600,165.600 309.600 C 165.820 309.600,166.000 309.836,166.000 310.125 C 166.000 310.413,166.360 311.036,166.800 311.508 C 167.240 311.980,167.600 312.557,167.600 312.791 C 167.600 313.400,172.685 318.400,173.304 318.400 C 173.590 318.400,174.083 318.760,174.400 319.200 C 174.717 319.640,175.297 320.000,175.688 320.000 C 176.080 320.000,176.400 320.180,176.400 320.400 C 176.400 320.620,176.749 320.800,177.176 320.800 C 177.603 320.800,178.064 320.980,178.200 321.200 C 178.336 321.420,178.851 321.600,179.344 321.600 C 179.837 321.600,180.411 321.765,180.620 321.966 C 181.560 322.873,213.289 323.671,214.150 322.810 C 214.375 322.585,215.593 322.400,216.856 322.400 C 218.119 322.400,219.264 322.220,219.400 322.000 C 219.536 321.780,220.076 321.600,220.600 321.600 C 221.124 321.600,221.664 321.420,221.800 321.200 C 221.936 320.980,222.397 320.800,222.824 320.800 C 223.251 320.800,223.600 320.620,223.600 320.400 C 223.600 320.180,223.920 320.000,224.312 320.000 C 224.703 320.000,225.283 319.640,225.600 319.200 C 225.917 318.760,226.410 318.400,226.696 318.400 C 227.372 318.400,232.400 313.372,232.400 312.696 C 232.400 312.410,232.760 311.917,233.200 311.600 C 233.640 311.283,234.000 310.703,234.000 310.312 C 234.000 309.920,234.180 309.600,234.400 309.600 C 234.620 309.600,234.800 309.276,234.800 308.880 C 234.800 308.484,235.025 307.677,235.300 307.086 L 235.800 306.013 273.600 305.851 C 310.077 305.694,315.761 305.551,316.580 304.765 C 316.789 304.564,317.543 304.400,318.256 304.400 C 318.969 304.400,319.664 304.220,319.800 304.000 C 319.936 303.780,320.566 303.600,321.200 303.600 C 321.834 303.600,322.464 303.420,322.600 303.200 C 322.736 302.980,323.377 302.800,324.024 302.800 C 324.671 302.800,325.200 302.620,325.200 302.400 C 325.200 302.180,325.549 302.000,325.976 302.000 C 326.403 302.000,326.864 301.820,327.000 301.600 C 327.136 301.380,327.687 301.200,328.224 301.200 C 328.761 301.200,329.200 301.020,329.200 300.800 C 329.200 300.580,329.560 300.400,330.000 300.400 C 330.440 300.400,330.800 300.220,330.800 300.000 C 330.800 299.780,331.160 299.600,331.600 299.600 C 332.040 299.600,332.400 299.420,332.400 299.200 C 332.400 298.980,332.760 298.800,333.200 298.800 C 333.640 298.800,334.000 298.620,334.000 298.400 C 334.000 298.180,334.360 298.000,334.800 298.000 C 335.240 298.000,335.600 297.820,335.600 297.600 C 335.600 297.380,335.878 297.200,336.217 297.200 C 336.556 297.200,337.220 296.840,337.692 296.400 C 338.164 295.960,338.787 295.600,339.075 295.600 C 339.364 295.600,339.600 295.420,339.600 295.200 C 339.600 294.980,339.798 294.800,340.040 294.800 C 340.281 294.800,340.983 294.260,341.600 293.600 C 342.217 292.940,342.926 292.400,343.177 292.400 C 343.668 292.400,343.883 292.244,345.942 290.401 C 346.681 289.741,347.401 289.199,347.542 289.198 C 347.978 289.194,351.394 285.818,352.631 284.169 C 353.274 283.312,354.370 282.033,355.067 281.325 C 355.763 280.618,356.451 279.671,356.594 279.220 C 356.737 278.769,356.993 278.400,357.163 278.400 C 357.332 278.400,357.815 277.682,358.236 276.805 C 358.656 275.927,359.135 275.207,359.300 275.205 C 359.465 275.202,359.600 274.930,359.600 274.600 C 359.600 274.270,359.780 274.000,360.000 274.000 C 360.220 274.000,360.400 273.730,360.400 273.400 C 360.400 273.070,360.580 272.800,360.800 272.800 C 361.020 272.800,361.200 272.530,361.200 272.200 C 361.200 271.870,361.380 271.600,361.600 271.600 C 361.820 271.600,362.000 271.240,362.000 270.800 C 362.000 270.360,362.180 270.000,362.400 270.000 C 362.620 270.000,362.800 269.640,362.800 269.200 C 362.800 268.760,362.980 268.400,363.200 268.400 C 363.420 268.400,363.600 268.040,363.600 267.600 C 363.600 267.160,363.780 266.800,364.000 266.800 C 364.220 266.800,364.400 266.451,364.400 266.024 C 364.400 265.597,364.580 265.136,364.800 265.000 C 365.020 264.864,365.200 264.313,365.200 263.776 C 365.200 263.239,365.380 262.800,365.600 262.800 C 365.820 262.800,366.000 262.260,366.000 261.600 C 366.000 260.940,366.180 260.400,366.400 260.400 C 366.620 260.400,366.800 259.860,366.800 259.200 C 366.800 258.540,366.980 258.000,367.200 258.000 C 367.420 258.000,367.600 257.370,367.600 256.600 C 367.600 255.830,367.780 255.200,368.000 255.200 C 368.220 255.200,368.400 254.491,368.400 253.624 C 368.400 252.757,368.580 251.936,368.800 251.800 C 369.020 251.664,369.200 250.393,369.200 248.976 C 369.200 247.525,369.375 246.400,369.600 246.400 C 369.861 246.400,370.000 240.267,370.000 228.800 L 370.000 211.200 374.200 211.200 C 376.733 211.200,378.400 211.041,378.400 210.800 C 378.400 210.580,378.940 210.400,379.600 210.400 C 380.260 210.400,380.800 210.220,380.800 210.000 C 380.800 209.780,381.160 209.600,381.600 209.600 C 382.040 209.600,382.400 209.450,382.400 209.268 C 382.400 209.085,382.895 208.689,383.500 208.389 C 384.951 207.668,388.000 204.773,388.000 204.117 C 388.000 203.833,388.148 203.600,388.329 203.600 C 388.667 203.600,389.908 200.901,390.734 198.372 C 391.344 196.502,391.408 122.176,390.800 121.800 C 390.580 121.664,390.400 121.023,390.400 120.376 C 390.400 119.729,390.220 119.200,390.000 119.200 C 389.780 119.200,389.600 118.840,389.600 118.400 C 389.600 117.960,389.420 117.600,389.200 117.600 C 388.980 117.600,388.800 117.332,388.800 117.005 C 388.800 116.677,388.485 116.021,388.100 115.547 C 385.971 112.927,385.069 112.000,384.647 112.000 C 384.388 112.000,383.917 111.640,383.600 111.200 C 383.283 110.760,382.703 110.400,382.312 110.400 C 381.920 110.400,381.600 110.220,381.600 110.000 C 381.600 109.780,381.276 109.600,380.880 109.600 C 380.484 109.600,379.947 109.387,379.686 109.126 C 379.399 108.839,377.395 108.582,374.606 108.476 L 370.000 108.299 370.000 82.294 C 370.000 53.786,369.877 55.248,372.276 55.213 C 372.758 55.206,373.264 55.020,373.400 54.800 C 373.536 54.580,373.997 54.400,374.424 54.400 C 374.851 54.400,375.200 54.220,375.200 54.000 C 375.200 53.780,375.560 53.600,376.000 53.600 C 376.440 53.600,376.800 53.420,376.800 53.200 C 376.800 52.980,377.043 52.800,377.341 52.800 C 377.638 52.800,378.446 52.260,379.137 51.600 C 379.828 50.940,380.586 50.400,380.822 50.400 C 381.332 50.400,385.200 46.505,385.200 45.992 C 385.200 45.796,385.650 45.186,386.200 44.636 C 386.750 44.086,387.200 43.373,387.200 43.052 C 387.200 42.730,387.335 42.407,387.500 42.333 C 387.991 42.115,389.600 38.784,389.600 37.986 C 389.600 37.580,389.780 37.136,390.000 37.000 C 390.220 36.864,390.400 36.169,390.400 35.456 C 390.400 34.743,390.590 33.970,390.823 33.737 C 391.615 32.945,390.829 19.913,389.958 19.374 C 389.761 19.252,389.600 18.882,389.600 18.551 C 389.600 17.687,387.185 12.800,386.758 12.800 C 386.561 12.800,386.400 12.552,386.400 12.248 C 386.400 11.945,385.725 11.038,384.900 10.233 C 381.044 6.471,378.646 4.400,378.146 4.400 C 377.846 4.400,377.600 4.220,377.600 4.000 C 377.600 3.780,377.240 3.600,376.800 3.600 C 376.360 3.600,376.000 3.420,376.000 3.200 C 376.000 2.980,375.640 2.800,375.200 2.800 C 374.760 2.800,374.400 2.620,374.400 2.400 C 374.400 2.180,373.950 2.000,373.400 2.000 C 372.850 2.000,372.400 1.820,372.400 1.600 C 372.400 1.380,371.860 1.200,371.200 1.200 C 370.540 1.200,370.000 1.020,370.000 0.800 C 370.000 0.549,367.400 0.400,363.000 0.400 C 358.600 0.400,356.000 0.549,356.000 0.800 C 356.000 1.020,355.460 1.200,354.800 1.200 C 354.140 1.200,353.600 1.380,353.600 1.600 C 353.600 1.820,353.060 2.000,352.400 2.000 C 351.740 2.000,351.200 2.180,351.200 2.400 C 351.200 2.620,350.840 2.800,350.400 2.800 C 349.960 2.800,349.600 2.980,349.600 3.200 C 349.600 3.420,349.240 3.600,348.800 3.600 C 348.360 3.600,348.000 3.750,348.000 3.932 C 348.000 4.115,347.507 4.520,346.905 4.832 C 345.588 5.516,339.600 11.392,339.600 12.002 C 339.600 12.240,339.240 12.820,338.800 13.292 C 338.360 13.764,338.000 14.387,338.000 14.675 C 338.000 14.964,337.820 15.200,337.600 15.200 C 337.380 15.200,337.200 15.549,337.200 15.976 C 337.200 16.403,337.020 16.864,336.800 17.000 C 336.580 17.136,336.400 17.687,336.400 18.224 C 336.400 18.761,336.220 19.200,336.000 19.200 C 335.780 19.200,335.600 19.920,335.600 20.800 C 335.600 21.680,335.420 22.400,335.200 22.400 C 334.952 22.400,334.800 24.600,334.800 28.200 C 334.800 31.800,334.952 34.000,335.200 34.000 C 335.420 34.000,335.600 34.720,335.600 35.600 C 335.600 36.480,335.780 37.200,336.000 37.200 C 336.220 37.200,336.400 37.740,336.400 38.400 C 336.400 39.060,336.546 39.600,336.725 39.600 C 336.904 39.600,337.298 40.230,337.600 41.000 C 337.902 41.770,338.296 42.400,338.475 42.400 C 338.654 42.400,338.800 42.720,338.800 43.112 C 338.800 43.503,339.160 44.083,339.600 44.400 C 340.040 44.717,340.400 45.182,340.400 45.434 C 340.400 45.959,344.500 50.400,344.985 50.400 C 345.162 50.400,345.597 50.716,345.953 51.103 C 346.309 51.489,347.095 52.060,347.700 52.370 C 348.305 52.681,348.800 53.085,348.800 53.268 C 348.800 53.450,349.160 53.600,349.600 53.600 C 350.040 53.600,350.400 53.780,350.400 54.000 C 350.400 54.220,350.839 54.400,351.376 54.400 C 351.913 54.400,352.464 54.580,352.600 54.800 C 352.736 55.020,353.242 55.206,353.724 55.213 C 356.123 55.248,356.000 53.781,356.000 82.344 L 356.000 108.400 352.800 108.400 C 349.867 108.400,349.600 108.333,349.600 107.600 C 349.600 107.160,349.420 106.800,349.200 106.800 C 348.980 106.800,348.800 106.440,348.800 106.000 C 348.800 105.560,348.620 105.200,348.400 105.200 C 348.180 105.200,348.000 104.660,348.000 104.000 C 348.000 103.340,347.820 102.800,347.600 102.800 C 347.380 102.800,347.200 102.440,347.200 102.000 C 347.200 101.560,347.020 101.200,346.800 101.200 C 346.580 101.200,346.400 100.840,346.400 100.400 C 346.400 99.960,346.220 99.600,346.000 99.600 C 345.780 99.600,345.600 99.240,345.600 98.800 C 345.600 98.360,345.420 98.000,345.200 98.000 C 344.980 98.000,344.800 97.640,344.800 97.200 C 344.800 96.760,344.620 96.400,344.400 96.400 C 344.180 96.400,344.000 96.130,344.000 95.800 C 344.000 95.470,343.820 95.200,343.600 95.200 C 343.380 95.200,343.200 94.930,343.200 94.600 C 343.200 94.270,343.064 94.000,342.898 94.000 C 342.731 94.000,342.338 93.419,342.024 92.709 C 341.311 91.098,339.884 88.877,338.814 87.714 C 338.366 87.227,338.000 86.624,338.000 86.375 C 338.000 86.125,337.460 85.417,336.800 84.800 C 336.140 84.183,335.600 83.492,335.600 83.264 C 335.600 82.694,323.525 70.800,322.946 70.800 C 322.822 70.800,322.217 70.260,321.600 69.600 C 320.983 68.940,320.326 68.400,320.140 68.399 C 319.953 68.399,319.170 67.859,318.400 67.200 C 317.630 66.541,316.857 66.001,316.683 66.001 C 316.509 66.000,315.980 65.640,315.508 65.200 C 315.036 64.760,314.413 64.400,314.125 64.400 C 313.836 64.400,313.600 64.220,313.600 64.000 C 313.600 63.780,313.322 63.600,312.983 63.600 C 312.644 63.600,311.980 63.240,311.508 62.800 C 311.036 62.360,310.413 62.000,310.125 62.000 C 309.836 62.000,309.600 61.820,309.600 61.600 C 309.600 61.380,309.255 61.200,308.833 61.200 C 308.412 61.200,308.007 61.058,307.933 60.884 C 307.702 60.337,303.224 58.400,302.189 58.400 C 301.645 58.400,301.200 58.220,301.200 58.000 C 301.200 57.780,300.840 57.600,300.400 57.600 C 299.960 57.600,299.600 57.420,299.600 57.200 C 299.600 56.980,299.060 56.800,298.400 56.800 C 297.740 56.800,297.200 56.620,297.200 56.400 C 297.200 56.180,296.660 56.000,296.000 56.000 C 295.340 56.000,294.800 55.820,294.800 55.600 C 294.800 55.380,294.260 55.200,293.600 55.200 C 292.940 55.200,292.400 55.020,292.400 54.800 C 292.400 54.580,291.770 54.400,291.000 54.400 C 290.230 54.400,289.600 54.220,289.600 54.000 C 289.600 53.780,288.880 53.600,288.000 53.600 C 287.120 53.600,286.400 53.420,286.400 53.200 C 286.400 52.980,285.511 52.800,284.424 52.800 C 283.337 52.800,282.336 52.620,282.200 52.400 C 282.064 52.180,280.433 52.000,278.576 52.000 C 276.592 52.000,275.200 51.835,275.200 51.600 C 275.200 51.339,268.600 51.200,256.200 51.200 L 237.200 51.200 237.200 44.824 C 237.200 41.004,237.040 38.348,236.800 38.200 C 236.580 38.064,236.400 37.243,236.400 36.376 C 236.400 35.509,236.220 34.800,236.000 34.800 C 235.780 34.800,235.600 34.260,235.600 33.600 C 235.600 32.940,235.420 32.400,235.200 32.400 C 234.980 32.400,234.800 32.040,234.800 31.600 C 234.800 31.160,234.620 30.800,234.400 30.800 C 234.180 30.800,234.000 30.528,234.000 30.195 C 234.000 29.639,233.277 28.076,232.799 27.600 C 232.689 27.490,232.329 26.863,231.999 26.207 C 231.670 25.551,230.905 24.489,230.300 23.848 C 229.695 23.206,229.200 22.519,229.200 22.321 C 229.200 21.489,221.430 14.421,220.500 14.407 C 220.225 14.403,220.000 14.250,220.000 14.067 C 220.000 13.605,215.256 11.200,214.344 11.200 C 213.935 11.200,213.600 11.059,213.600 10.887 C 213.600 10.715,212.745 10.348,211.700 10.071 C 210.655 9.795,209.260 9.403,208.600 9.201 C 204.740 8.019,189.426 8.664,188.573 10.044 C 188.452 10.240,187.913 10.400,187.376 10.400 C 186.839 10.400,186.400 10.580,186.400 10.800 C 186.400 11.020,186.051 11.200,185.625 11.200 C 184.786 11.200,180.285 13.522,180.067 14.067 C 179.993 14.250,179.723 14.403,179.467 14.407 C 178.492 14.422,170.800 21.535,170.800 22.420 C 170.800 22.673,170.293 23.356,169.673 23.940 C 169.053 24.523,168.289 25.585,167.975 26.300 C 167.662 27.015,167.269 27.600,167.102 27.600 C 166.936 27.600,166.800 27.960,166.800 28.400 C 166.800 28.840,166.620 29.200,166.400 29.200 C 166.180 29.200,166.000 29.560,166.000 30.000 C 166.000 30.440,165.820 30.800,165.600 30.800 C 165.380 30.800,165.200 31.149,165.200 31.576 C 165.200 32.003,165.020 32.464,164.800 32.600 C 164.580 32.736,164.400 33.276,164.400 33.800 C 164.400 34.324,164.239 34.852,164.042 34.974 C 163.452 35.339,163.129 38.251,162.940 44.900 L 162.762 51.200 143.781 51.200 C 131.394 51.200,124.800 51.339,124.800 51.600 C 124.800 51.835,123.408 52.000,121.424 52.000 C 119.567 52.000,117.936 52.180,117.800 52.400 C 117.664 52.620,116.663 52.800,115.576 52.800 C 114.489 52.800,113.600 52.980,113.600 53.200 C 113.600 53.420,112.880 53.600,112.000 53.600 C 111.120 53.600,110.400 53.780,110.400 54.000 C 110.400 54.220,109.770 54.400,109.000 54.400 C 108.230 54.400,107.600 54.580,107.600 54.800 C 107.600 55.020,107.060 55.200,106.400 55.200 C 105.740 55.200,105.200 55.380,105.200 55.600 C 105.200 55.820,104.660 56.000,104.000 56.000 C 103.340 56.000,102.800 56.180,102.800 56.400 C 102.800 56.620,102.260 56.800,101.600 56.800 C 100.940 56.800,100.400 56.980,100.400 57.200 C 100.400 57.420,100.040 57.600,99.600 57.600 C 99.160 57.600,98.800 57.756,98.800 57.948 C 98.800 58.139,98.204 58.392,97.475 58.510 C 96.003 58.749,92.275 60.383,92.067 60.881 C 91.993 61.057,91.588 61.200,91.167 61.200 C 90.745 61.200,90.400 61.380,90.400 61.600 C 90.400 61.820,90.164 62.000,89.875 62.000 C 89.587 62.000,88.964 62.360,88.492 62.800 C 88.020 63.240,87.356 63.600,87.017 63.600 C 86.678 63.600,86.400 63.780,86.400 64.000 C 86.400 64.220,86.164 64.400,85.875 64.400 C 85.587 64.400,84.964 64.760,84.492 65.200 C 84.020 65.640,83.473 66.000,83.276 66.000 C 83.079 66.000,82.354 66.540,81.663 67.200 C 80.972 67.860,80.208 68.400,79.964 68.400 C 79.720 68.400,79.017 68.940,78.400 69.600 C 77.783 70.260,77.178 70.800,77.054 70.800 C 76.475 70.800,64.400 82.694,64.400 83.264 C 64.400 83.492,63.860 84.183,63.200 84.800 C 62.540 85.417,62.000 86.125,62.000 86.375 C 62.000 86.624,61.634 87.227,61.186 87.714 C 60.116 88.877,58.689 91.098,57.976 92.709 C 57.662 93.419,57.269 94.000,57.102 94.000 C 56.936 94.000,56.800 94.270,56.800 94.600 C 56.800 94.930,56.620 95.200,56.400 95.200 C 56.180 95.200,56.000 95.470,56.000 95.800 C 56.000 96.130,55.820 96.400,55.600 96.400 C 55.380 96.400,55.200 96.760,55.200 97.200 C 55.200 97.640,55.020 98.000,54.800 98.000 C 54.580 98.000,54.400 98.360,54.400 98.800 C 54.400 99.240,54.220 99.600,54.000 99.600 C 53.780 99.600,53.600 99.960,53.600 100.400 C 53.600 100.840,53.420 101.200,53.200 101.200 C 52.980 101.200,52.800 101.560,52.800 102.000 C 52.800 102.440,52.620 102.800,52.400 102.800 C 52.180 102.800,52.000 103.340,52.000 104.000 C 52.000 104.660,51.820 105.200,51.600 105.200 C 51.380 105.200,51.200 105.560,51.200 106.000 C 51.200 106.440,51.020 106.800,50.800 106.800 C 50.580 106.800,50.400 107.160,50.400 107.600 C 50.400 108.333,50.133 108.400,47.200 108.400 L 44.000 108.400 44.000 82.249 L 44.000 56.097 45.300 55.615 C 46.015 55.350,46.913 54.968,47.295 54.767 C 47.677 54.565,48.352 54.400,48.795 54.400 C 49.238 54.400,49.600 54.220,49.600 54.000 C 49.600 53.780,49.960 53.600,50.400 53.600 C 50.840 53.600,51.200 53.450,51.200 53.268 C 51.200 53.085,51.695 52.681,52.300 52.370 C 52.905 52.060,53.691 51.489,54.047 51.103 C 54.403 50.716,54.879 50.400,55.106 50.400 C 55.634 50.400,59.600 46.005,59.600 45.419 C 59.600 45.176,59.960 44.717,60.400 44.400 C 60.840 44.083,61.200 43.518,61.200 43.145 C 61.200 42.772,61.335 42.407,61.500 42.333 C 61.999 42.112,63.600 38.778,63.600 37.962 C 63.600 37.543,63.780 37.200,64.000 37.200 C 64.220 37.200,64.400 36.480,64.400 35.600 C 64.400 34.720,64.580 34.000,64.800 34.000 C 65.048 34.000,65.200 31.800,65.200 28.200 C 65.200 24.600,65.048 22.400,64.800 22.400 C 64.580 22.400,64.400 21.680,64.400 20.800 C 64.400 19.920,64.220 19.200,64.000 19.200 C 63.780 19.200,63.600 18.761,63.600 18.224 C 63.600 17.687,63.420 17.136,63.200 17.000 C 62.980 16.864,62.800 16.403,62.800 15.976 C 62.800 15.549,62.620 15.200,62.400 15.200 C 62.180 15.200,62.000 14.964,62.000 14.675 C 62.000 14.387,61.640 13.764,61.200 13.292 C 60.760 12.820,60.400 12.240,60.400 12.002 C 60.400 11.453,54.158 5.200,53.610 5.200 C 53.384 5.200,53.200 5.020,53.200 4.800 C 53.200 4.580,52.930 4.400,52.600 4.400 C 52.270 4.400,52.000 4.220,52.000 4.000 C 52.000 3.780,51.640 3.600,51.200 3.600 C 50.760 3.600,50.400 3.420,50.400 3.200 C 50.400 2.980,50.040 2.800,49.600 2.800 C 49.160 2.800,48.800 2.620,48.800 2.400 C 48.800 2.180,48.260 2.000,47.600 2.000 C 46.940 2.000,46.400 1.820,46.400 1.600 C 46.400 1.380,45.860 1.200,45.200 1.200 C 44.540 1.200,44.000 1.020,44.000 0.800 C 44.000 0.549,41.400 0.400,37.000 0.400 C 32.600 0.400,30.000 0.549,30.000 0.800 M41.481 13.651 C 52.034 17.900,55.614 28.721,49.313 37.316 C 47.934 39.197,43.769 42.400,42.702 42.400 C 42.404 42.400,41.946 42.614,41.684 42.876 C 41.383 43.177,39.781 43.353,37.304 43.357 C 20.700 43.380,15.926 21.423,31.000 14.361 C 33.655 13.117,39.220 12.740,41.481 13.651 M369.011 14.376 C 375.386 17.266,379.180 24.139,377.948 30.565 C 374.904 46.443,353.818 48.165,348.456 32.973 C 345.666 25.068,349.632 17.373,358.400 13.676 C 360.625 12.738,366.210 13.106,369.011 14.376 M206.056 22.363 C 213.804 24.345,220.491 30.562,222.961 38.080 C 224.260 42.034,224.934 49.743,224.157 51.767 C 223.786 52.734,176.214 52.734,175.843 51.767 C 175.395 50.601,175.594 43.827,176.153 41.200 C 178.264 31.278,185.534 24.124,195.800 21.869 C 197.945 21.397,203.287 21.655,206.056 22.363 M272.131 64.400 C 286.340 65.568,297.895 69.411,308.600 76.529 C 315.449 81.083,323.035 88.203,326.788 93.600 C 327.323 94.370,327.880 95.090,328.026 95.200 C 328.618 95.648,332.070 101.364,333.743 104.669 C 337.511 112.109,339.105 116.868,341.226 127.000 C 342.463 132.910,342.131 187.265,340.816 194.200 C 339.755 199.795,338.516 204.344,337.221 207.400 C 337.034 207.840,336.578 208.920,336.208 209.800 C 325.416 235.427,301.965 252.437,273.600 255.211 C 267.603 255.797,127.088 255.504,123.200 254.897 C 117.484 254.005,117.088 253.924,112.700 252.742 C 91.194 246.953,71.886 230.056,63.858 210.000 C 63.462 209.010,62.981 207.840,62.789 207.400 C 61.534 204.521,60.270 199.897,59.181 194.200 C 57.516 185.491,57.545 133.951,59.220 125.200 C 59.451 123.990,59.741 122.324,59.863 121.497 C 59.985 120.671,60.245 119.895,60.442 119.774 C 60.639 119.652,60.800 119.111,60.800 118.571 C 60.800 118.031,60.958 117.277,61.151 116.895 C 61.344 116.513,61.716 115.480,61.977 114.600 C 62.239 113.720,62.603 112.640,62.786 112.200 C 64.098 109.046,64.679 107.785,66.287 104.600 C 67.979 101.248,71.361 95.655,71.971 95.200 C 72.118 95.090,72.677 94.370,73.212 93.600 C 76.661 88.640,84.453 81.175,90.224 77.300 C 101.364 69.823,112.267 65.937,125.800 64.623 C 132.434 63.978,264.553 63.777,272.131 64.400 M123.200 99.013 C 91.270 104.668,84.260 147.266,112.687 162.891 C 130.847 172.872,153.749 164.238,161.205 144.600 C 161.510 143.797,161.954 142.182,162.809 138.764 C 163.534 135.864,162.875 123.941,161.958 123.374 C 161.761 123.252,161.600 122.801,161.600 122.371 C 161.600 121.941,161.440 121.277,161.244 120.895 C 161.048 120.513,160.469 119.300,159.957 118.200 C 153.499 104.323,138.229 96.352,123.200 99.013 M265.200 99.013 C 253.105 101.155,243.590 109.073,238.776 121.000 C 238.365 122.017,237.790 124.073,237.235 126.506 C 236.675 128.960,236.673 136.822,237.232 138.954 C 237.469 139.859,237.850 141.320,238.077 142.200 C 240.264 150.653,247.255 159.189,255.327 163.264 C 271.993 171.677,291.937 165.632,301.004 149.420 C 309.067 135.001,305.119 115.442,292.197 105.797 C 291.319 105.141,290.510 104.514,290.400 104.402 C 290.068 104.066,288.325 103.099,286.000 101.960 C 279.541 98.797,272.253 97.764,265.200 99.013 M135.341 111.424 C 156.210 117.418,156.476 147.350,135.719 154.056 C 117.764 159.856,100.753 140.789,108.649 123.715 C 110.325 120.092,115.549 114.000,116.981 114.000 C 117.144 114.000,117.754 113.661,118.338 113.247 C 121.931 110.700,129.861 109.850,135.341 111.424 M277.341 111.424 C 290.106 115.090,296.902 129.879,291.345 141.898 C 281.236 163.760,249.053 156.836,249.059 132.800 C 249.062 117.624,262.793 107.245,277.341 111.424 M47.483 122.700 C 47.361 123.525,47.023 125.640,46.731 127.400 C 46.324 129.852,46.200 137.380,46.200 159.600 C 46.200 187.643,46.287 190.266,47.443 196.900 L 47.705 198.400 36.614 198.400 C 24.473 198.400,24.037 198.325,22.654 195.984 C 21.632 194.253,21.656 125.306,22.679 123.573 C 23.996 121.345,24.746 121.219,36.753 121.209 L 47.705 121.200 47.483 122.700 M375.357 121.806 C 378.380 123.241,378.200 120.831,378.200 159.800 L 378.200 194.600 377.310 196.031 C 375.879 198.333,375.480 198.400,363.331 198.400 L 352.300 198.400 352.568 197.100 C 353.671 191.762,353.800 187.829,353.800 159.600 C 353.799 133.463,353.722 129.737,353.100 126.030 C 352.715 123.736,352.400 121.711,352.400 121.530 C 352.400 120.876,373.944 121.136,375.357 121.806 M156.400 185.800 C 149.387 187.382,143.203 192.295,140.543 198.400 C 138.781 202.443,138.400 204.151,138.400 208.000 C 138.400 217.829,144.518 226.219,154.032 229.438 L 156.877 230.400 199.892 230.400 C 244.571 230.400,244.133 230.415,247.998 228.701 C 254.376 225.873,259.503 219.849,261.022 213.400 C 261.913 209.617,261.605 203.580,260.363 200.500 C 257.082 192.365,251.424 187.503,243.200 185.753 C 239.606 184.988,159.808 185.032,156.400 185.800 M243.800 198.337 C 251.858 203.055,251.751 213.432,243.600 217.665 L 241.800 218.600 200.800 218.718 C 168.962 218.809,159.442 218.724,158.200 218.338 C 147.382 214.974,147.816 199.980,158.800 197.585 C 159.570 197.417,178.650 197.307,201.200 197.340 L 242.200 197.400 243.800 198.337 M128.400 278.800 C 128.400 279.020,128.209 279.200,127.977 279.200 C 127.513 279.200,124.585 281.384,123.553 282.500 C 123.197 282.885,122.652 283.200,122.341 283.200 C 122.031 283.200,121.517 283.560,121.200 284.000 C 120.883 284.440,120.420 284.800,120.171 284.800 C 119.922 284.800,119.154 285.340,118.463 286.000 C 117.772 286.660,116.975 287.200,116.692 287.200 C 116.409 287.200,115.917 287.560,115.600 288.000 C 115.283 288.440,114.793 288.800,114.512 288.800 C 114.230 288.800,114.000 288.980,114.000 289.200 C 114.000 289.420,113.770 289.600,113.488 289.600 C 113.207 289.600,112.717 289.960,112.400 290.400 C 112.083 290.840,111.679 291.200,111.503 291.200 C 111.027 291.200,107.898 293.282,107.153 294.094 C 106.797 294.482,106.347 294.800,106.153 294.801 C 105.959 294.801,105.170 295.341,104.400 296.000 C 103.630 296.659,102.815 297.199,102.588 297.199 C 102.362 297.200,101.917 297.560,101.600 298.000 C 101.283 298.440,100.838 298.800,100.612 298.801 C 100.385 298.801,99.570 299.341,98.800 300.000 C 98.030 300.659,97.215 301.199,96.988 301.199 C 96.762 301.200,96.317 301.560,96.000 302.000 C 95.432 302.788,94.965 302.800,64.912 302.800 C 44.837 302.800,34.400 302.937,34.400 303.200 C 34.400 303.420,33.691 303.600,32.824 303.600 C 31.957 303.600,31.136 303.780,31.000 304.000 C 30.864 304.220,30.403 304.400,29.976 304.400 C 29.549 304.400,29.200 304.580,29.200 304.800 C 29.200 305.020,28.930 305.200,28.600 305.200 C 28.270 305.200,28.000 305.380,28.000 305.600 C 28.000 305.820,27.775 306.002,27.500 306.004 C 27.225 306.006,26.550 306.577,26.000 307.274 C 25.450 307.971,24.775 308.766,24.500 309.042 C 24.225 309.317,24.000 309.736,24.000 309.971 C 24.000 310.207,23.820 310.400,23.600 310.400 C 23.380 310.400,23.200 310.749,23.200 311.176 C 23.200 311.603,23.020 312.064,22.800 312.200 C 22.580 312.336,22.400 313.067,22.400 313.824 C 22.400 314.581,22.220 315.200,22.000 315.200 C 21.447 315.200,21.447 387.458,22.000 387.800 C 22.220 387.936,22.400 388.566,22.400 389.200 C 22.400 389.834,22.580 390.464,22.800 390.600 C 23.020 390.736,23.200 391.157,23.200 391.535 C 23.200 391.914,23.560 392.483,24.000 392.800 C 24.440 393.117,24.800 393.625,24.800 393.928 C 24.800 394.583,27.327 397.200,27.960 397.200 C 28.202 397.200,28.401 397.335,28.403 397.500 C 28.407 397.859,30.344 398.800,31.080 398.800 C 31.366 398.800,31.600 398.980,31.600 399.200 C 31.600 399.754,148.258 399.754,148.600 399.200 C 148.736 398.980,149.197 398.800,149.624 398.800 C 150.051 398.800,150.400 398.620,150.400 398.400 C 150.400 398.180,150.674 398.000,151.009 398.000 C 152.063 398.000,156.015 393.661,157.133 391.275 L 158.200 389.000 158.319 353.200 C 158.440 316.658,158.346 313.802,156.922 311.048 C 156.079 309.420,151.830 305.200,151.032 305.200 C 150.684 305.200,150.400 305.020,150.400 304.800 C 150.400 304.580,150.040 304.400,149.600 304.400 C 149.160 304.400,148.800 304.220,148.800 304.000 C 148.800 303.780,148.080 303.600,147.200 303.600 C 146.320 303.600,145.600 303.420,145.600 303.200 C 145.600 302.965,144.200 302.800,142.200 302.800 L 138.800 302.800 138.800 292.600 C 138.800 286.067,138.656 282.400,138.400 282.400 C 138.180 282.400,138.000 282.122,138.000 281.782 C 138.000 281.085,136.566 279.531,135.296 278.851 C 134.246 278.289,128.400 278.246,128.400 278.800 M218.134 289.737 C 224.828 293.672,225.333 303.334,219.064 307.523 C 215.918 309.625,216.148 309.600,200.000 309.600 C 189.045 309.600,184.527 309.466,183.719 309.117 C 174.760 305.252,173.891 294.267,182.176 289.614 C 184.216 288.468,184.143 288.472,200.600 288.538 L 216.200 288.600 218.134 289.737 M125.757 298.233 C 125.891 298.581,126.000 301.870,126.000 305.542 L 126.000 312.218 127.218 313.695 C 128.853 315.679,130.253 315.995,137.411 315.998 C 142.201 316.000,143.603 316.126,144.311 316.623 L 145.200 317.245 145.200 351.249 C 145.200 373.924,145.062 385.510,144.786 386.026 C 144.203 387.116,36.516 387.259,35.429 386.171 C 34.441 385.184,34.473 317.569,35.461 316.749 C 36.005 316.298,41.753 316.164,67.761 316.000 L 99.400 315.800 102.600 313.632 C 104.360 312.440,105.890 311.346,106.000 311.202 C 106.110 311.058,107.370 310.157,108.800 309.200 C 110.230 308.243,111.490 307.351,111.600 307.217 C 111.710 307.083,114.320 305.190,117.400 303.010 C 120.480 300.829,123.450 298.726,124.000 298.335 C 125.243 297.453,125.453 297.441,125.757 298.233 M51.400 330.293 C 46.478 331.525,45.571 338.663,50.018 341.162 C 51.503 341.997,51.667 342.000,90.347 342.000 L 129.186 342.000 130.993 340.269 C 134.285 337.114,133.101 331.588,128.882 330.416 C 127.380 329.999,53.046 329.881,51.400 330.293 M49.489 362.054 C 46.295 364.436,46.449 369.836,49.773 372.049 C 50.614 372.609,125.652 373.149,128.600 372.617 C 132.821 371.854,134.377 365.977,131.200 362.800 L 129.600 361.200 90.100 361.213 C 50.776 361.225,50.595 361.229,49.489 362.054 " stroke="none" fill="#040404" fill-rule="evenodd"></path><path id="path2" d="M196.800 22.384 C 196.470 22.606,195.536 22.791,194.724 22.794 C 193.912 22.797,193.136 22.980,193.000 23.200 C 192.864 23.420,192.313 23.600,191.776 23.600 C 191.239 23.600,190.800 23.780,190.800 24.000 C 190.800 24.220,190.440 24.400,190.000 24.400 C 189.560 24.400,189.200 24.536,189.200 24.702 C 189.200 24.869,188.615 25.258,187.900 25.567 C 185.968 26.402,180.358 32.264,179.256 34.600 C 178.737 35.700,178.152 36.913,177.956 37.295 C 177.760 37.677,177.600 38.341,177.600 38.771 C 177.600 39.201,177.443 39.650,177.250 39.769 C 176.878 39.999,176.533 42.530,176.141 47.900 L 175.900 51.200 199.550 51.200 L 223.200 51.200 223.200 45.600 C 223.200 42.133,223.048 40.000,222.800 40.000 C 222.580 40.000,222.400 39.561,222.400 39.024 C 222.400 38.487,222.220 37.936,222.000 37.800 C 221.780 37.664,221.600 37.203,221.600 36.776 C 221.600 36.349,221.464 36.000,221.298 36.000 C 221.131 36.000,220.736 35.415,220.420 34.700 C 220.103 33.985,219.520 33.051,219.122 32.625 C 218.725 32.198,218.400 31.689,218.400 31.494 C 218.400 30.889,213.222 26.077,211.978 25.526 C 211.330 25.239,210.800 24.869,210.800 24.702 C 210.800 24.536,210.440 24.400,210.000 24.400 C 209.560 24.400,209.200 24.220,209.200 24.000 C 209.200 23.780,208.786 23.600,208.280 23.600 C 207.774 23.600,207.189 23.438,206.980 23.241 C 206.155 22.461,197.738 21.752,196.800 22.384 M125.800 111.190 C 115.334 112.504,107.200 121.954,107.200 132.800 C 107.200 152.540,131.289 162.076,144.847 147.704 C 159.076 132.619,146.540 108.587,125.800 111.190 M267.800 111.216 C 248.205 113.788,242.462 140.005,259.078 151.034 C 273.416 160.551,292.800 150.112,292.800 132.873 C 292.800 119.338,281.369 109.435,267.800 111.216 M118.996 302.401 C 115.918 304.602,110.790 308.267,107.600 310.547 C 104.410 312.826,101.170 315.075,100.400 315.544 C 99.002 316.396,98.945 316.397,67.580 316.399 C 43.677 316.400,36.045 316.515,35.680 316.880 C 34.984 317.576,34.984 385.224,35.680 385.920 C 36.377 386.617,143.623 386.617,144.320 385.920 C 145.145 385.095,145.000 317.857,144.171 317.029 C 143.650 316.508,142.402 316.400,136.871 316.399 C 126.317 316.396,125.557 315.655,125.276 305.100 C 125.178 301.415,124.984 298.400,124.845 298.400 C 124.706 298.400,122.074 300.200,118.996 302.401 M130.226 330.594 C 134.679 333.203,134.480 339.505,129.874 341.803 C 128.064 342.706,51.747 342.703,50.001 341.800 C 46.563 340.022,45.557 334.386,48.205 331.738 C 50.482 329.461,47.703 329.603,89.965 329.601 L 128.530 329.600 130.226 330.594 M130.000 361.163 C 135.301 364.146,134.389 371.153,128.440 373.145 C 126.420 373.821,53.720 373.788,51.456 373.110 C 45.305 371.267,45.307 361.631,51.459 360.686 C 54.820 360.169,129.035 360.620,130.000 361.163 " stroke="none" fill="#f8d34e" fill-rule="evenodd"></path><path id="path3" d="M31.000 14.361 C 23.027 18.096,19.732 26.889,23.340 34.800 C 24.179 36.639,28.745 41.600,29.599 41.600 C 29.859 41.600,29.177 40.893,28.083 40.028 C 18.189 32.207,21.778 16.481,34.066 13.814 C 36.338 13.321,36.434 13.262,35.000 13.250 C 34.057 13.242,32.414 13.699,31.000 14.361 M38.033 13.344 C 38.125 13.424,39.010 13.606,40.000 13.750 C 41.258 13.933,41.619 13.891,41.200 13.612 C 40.660 13.253,37.632 12.997,38.033 13.344 M358.800 13.603 C 358.390 13.870,358.835 13.914,360.200 13.741 C 361.300 13.601,362.275 13.423,362.367 13.344 C 362.764 13.001,359.341 13.250,358.800 13.603 M365.845 13.795 C 381.725 17.250,381.373 39.881,365.392 42.835 C 359.751 43.878,353.393 41.043,350.357 36.130 C 349.890 35.376,349.422 34.845,349.316 34.951 C 348.951 35.316,351.538 38.653,353.268 40.050 C 365.920 50.266,383.542 36.170,376.582 21.400 C 374.750 17.511,368.525 13.156,364.909 13.232 C 363.583 13.260,363.696 13.328,365.845 13.795 M44.800 15.521 C 47.197 17.148,49.291 19.482,50.393 21.754 C 51.046 23.099,51.584 23.969,51.590 23.687 C 51.632 21.568,45.895 14.721,44.162 14.821 C 43.963 14.833,44.250 15.148,44.800 15.521 M353.794 16.100 C 351.003 18.384,348.378 22.083,348.410 23.687 C 348.416 23.969,348.954 23.099,349.607 21.754 C 350.709 19.482,352.803 17.148,355.200 15.521 C 355.750 15.148,356.016 14.833,355.791 14.821 C 355.566 14.809,354.667 15.385,353.794 16.100 M195.800 21.869 C 185.534 24.124,178.264 31.278,176.153 41.200 C 175.594 43.827,175.395 50.601,175.843 51.767 C 176.214 52.734,223.786 52.734,224.157 51.767 C 224.934 49.743,224.260 42.034,222.961 38.080 C 219.363 27.128,206.582 19.499,195.800 21.869 M204.800 22.615 C 205.790 22.762,206.771 23.044,206.980 23.241 C 207.189 23.438,207.774 23.600,208.280 23.600 C 208.786 23.600,209.200 23.780,209.200 24.000 C 209.200 24.220,209.560 24.400,210.000 24.400 C 210.440 24.400,210.800 24.536,210.800 24.702 C 210.800 24.869,211.330 25.239,211.978 25.526 C 213.222 26.077,218.400 30.889,218.400 31.494 C 218.400 31.689,218.725 32.198,219.122 32.625 C 219.520 33.051,220.103 33.985,220.420 34.700 C 220.736 35.415,221.131 36.000,221.298 36.000 C 221.464 36.000,221.600 36.349,221.600 36.776 C 221.600 37.203,221.780 37.664,222.000 37.800 C 222.220 37.936,222.400 38.487,222.400 39.024 C 222.400 39.561,222.580 40.000,222.800 40.000 C 223.048 40.000,223.200 42.133,223.200 45.600 L 223.200 51.200 199.550 51.200 L 175.900 51.200 176.141 47.900 C 176.533 42.530,176.878 39.999,177.250 39.769 C 177.443 39.650,177.600 39.201,177.600 38.771 C 177.600 38.341,177.760 37.677,177.956 37.295 C 178.152 36.913,178.737 35.700,179.256 34.600 C 180.358 32.264,185.968 26.402,187.900 25.567 C 188.615 25.258,189.200 24.869,189.200 24.702 C 189.200 24.536,189.560 24.400,190.000 24.400 C 190.440 24.400,190.800 24.220,190.800 24.000 C 190.800 23.780,191.239 23.600,191.776 23.600 C 192.313 23.600,192.864 23.420,193.000 23.200 C 193.136 22.980,193.912 22.797,194.724 22.794 C 195.536 22.791,196.470 22.606,196.800 22.384 C 197.394 21.984,201.297 22.097,204.800 22.615 M51.763 28.135 C 51.776 30.266,51.912 31.693,52.065 31.305 C 52.437 30.364,52.421 25.998,52.042 25.030 C 51.876 24.606,51.751 26.003,51.763 28.135 M347.852 25.300 C 347.514 26.562,347.552 30.905,347.906 31.461 C 348.068 31.715,348.206 30.230,348.213 28.161 C 348.228 24.084,348.212 23.957,347.852 25.300 M50.622 34.198 C 48.088 40.834,38.309 45.036,31.900 42.243 C 31.075 41.883,30.400 41.679,30.400 41.789 C 30.400 43.065,40.521 44.039,41.684 42.876 C 41.946 42.614,42.404 42.400,42.702 42.400 C 45.189 42.400,52.823 33.889,51.512 32.578 C 51.404 32.470,51.003 33.199,50.622 34.198 M128.600 64.400 C 127.280 64.546,159.500 64.667,200.200 64.670 C 240.900 64.672,272.940 64.545,271.400 64.387 C 267.885 64.026,131.866 64.039,128.600 64.400 M120.400 65.200 L 119.400 65.520 120.400 65.537 C 120.950 65.546,122.120 65.405,123.000 65.223 L 124.600 64.892 123.000 64.886 C 122.120 64.883,120.950 65.024,120.400 65.200 M277.000 65.223 C 277.880 65.405,279.050 65.546,279.600 65.537 L 280.600 65.520 279.600 65.200 C 279.050 65.024,277.880 64.883,277.000 64.886 L 275.400 64.892 277.000 65.223 M116.200 66.000 C 115.471 66.313,115.488 66.344,116.400 66.344 C 116.950 66.344,117.760 66.189,118.200 66.000 C 118.929 65.687,118.912 65.656,118.000 65.656 C 117.450 65.656,116.640 65.811,116.200 66.000 M281.800 66.000 C 282.240 66.189,283.050 66.344,283.600 66.344 C 284.512 66.344,284.529 66.313,283.800 66.000 C 283.360 65.811,282.550 65.656,282.000 65.656 C 281.088 65.656,281.071 65.687,281.800 66.000 M113.000 66.800 L 112.200 67.144 113.000 67.144 C 113.440 67.144,114.160 66.989,114.600 66.800 L 115.400 66.456 114.600 66.456 C 114.160 66.456,113.440 66.611,113.000 66.800 M285.400 66.800 C 285.840 66.989,286.560 67.144,287.000 67.144 L 287.800 67.144 287.000 66.800 C 286.560 66.611,285.840 66.456,285.400 66.456 L 284.600 66.456 285.400 66.800 M107.323 68.575 C 93.814 73.481,80.316 83.384,73.212 93.600 C 72.677 94.370,72.118 95.090,71.971 95.200 C 70.822 96.057,63.661 108.994,64.094 109.428 C 64.198 109.532,65.110 107.906,66.121 105.816 C 74.534 88.414,90.975 74.203,109.500 68.319 C 111.885 67.562,112.586 67.177,111.500 67.220 C 111.225 67.231,109.346 67.841,107.323 68.575 M288.037 67.371 C 288.131 67.464,289.646 68.015,291.404 68.594 C 294.934 69.757,295.919 70.169,300.600 72.442 C 317.760 80.772,331.626 96.734,337.777 115.238 C 338.538 117.527,339.170 119.003,339.180 118.519 C 339.191 118.034,339.036 117.224,338.835 116.719 C 338.634 116.213,338.074 114.720,337.590 113.400 C 336.302 109.892,335.730 108.592,333.743 104.669 C 332.070 101.364,328.618 95.648,328.026 95.200 C 327.880 95.090,327.323 94.370,326.788 93.600 C 321.367 85.804,310.847 77.065,300.856 72.058 C 296.075 69.662,287.016 66.349,288.037 67.371 M127.907 98.290 C 128.626 98.379,129.706 98.377,130.307 98.286 C 130.908 98.195,130.320 98.122,129.000 98.124 C 127.680 98.126,127.188 98.201,127.907 98.290 M269.907 98.290 C 270.626 98.379,271.706 98.377,272.307 98.286 C 272.908 98.195,272.320 98.122,271.000 98.124 C 269.680 98.126,269.188 98.201,269.907 98.290 M121.800 98.821 C 121.272 99.062,121.816 99.104,123.400 98.943 C 124.720 98.809,125.875 98.632,125.967 98.550 C 126.321 98.231,122.556 98.476,121.800 98.821 M132.033 98.550 C 132.125 98.632,133.280 98.809,134.600 98.943 C 136.184 99.104,136.728 99.062,136.200 98.821 C 135.444 98.476,131.679 98.231,132.033 98.550 M263.800 98.821 C 263.272 99.062,263.816 99.104,265.400 98.943 C 266.720 98.809,267.875 98.632,267.967 98.550 C 268.321 98.231,264.556 98.476,263.800 98.821 M274.033 98.550 C 274.125 98.632,275.280 98.809,276.600 98.943 C 278.184 99.104,278.728 99.062,278.200 98.821 C 277.444 98.476,273.679 98.231,274.033 98.550 M118.800 99.600 C 118.005 100.114,119.004 100.114,120.200 99.600 L 121.000 99.256 120.200 99.234 C 119.760 99.222,119.130 99.387,118.800 99.600 M137.800 99.600 C 138.996 100.114,139.995 100.114,139.200 99.600 C 138.870 99.387,138.240 99.222,137.800 99.234 L 137.000 99.256 137.800 99.600 M260.800 99.600 C 260.005 100.114,261.004 100.114,262.200 99.600 L 263.000 99.256 262.200 99.234 C 261.760 99.222,261.130 99.387,260.800 99.600 M279.800 99.600 C 280.996 100.114,281.995 100.114,281.200 99.600 C 280.870 99.387,280.240 99.222,279.800 99.234 L 279.000 99.256 279.800 99.600 M114.200 101.363 C 88.675 113.398,87.619 149.675,112.400 163.157 C 114.050 164.054,115.580 164.788,115.800 164.787 C 116.020 164.786,114.797 164.023,113.082 163.093 C 87.765 149.349,89.019 112.845,115.200 101.425 C 118.098 100.161,118.385 99.991,117.567 100.021 C 117.255 100.033,115.740 100.637,114.200 101.363 M141.558 100.837 C 142.525 101.266,143.400 101.534,143.502 101.432 C 143.724 101.210,140.894 99.988,140.251 100.028 C 140.003 100.044,140.591 100.408,141.558 100.837 M256.862 101.052 C 255.686 101.605,254.803 102.136,254.899 102.232 C 254.995 102.329,256.228 101.874,257.637 101.222 C 259.047 100.570,259.930 100.039,259.600 100.042 C 259.270 100.045,258.038 100.500,256.862 101.052 M282.800 100.503 C 283.350 100.749,284.610 101.309,285.600 101.746 C 286.590 102.183,287.905 102.888,288.523 103.314 C 289.141 103.739,289.735 103.998,289.844 103.889 C 290.276 103.458,283.440 99.963,282.289 100.027 C 282.020 100.042,282.250 100.256,282.800 100.503 M144.200 102.000 C 144.336 102.220,144.625 102.400,144.842 102.400 C 148.422 102.400,158.902 114.197,160.972 120.557 C 161.108 120.974,161.337 121.197,161.481 121.053 C 162.365 120.168,156.879 111.584,153.030 107.831 C 149.850 104.729,143.154 100.308,144.200 102.000 M251.734 103.974 C 246.034 107.781,236.966 119.499,238.519 121.053 C 238.663 121.197,238.892 120.974,239.028 120.557 C 240.829 115.026,246.921 107.445,252.300 104.044 C 254.178 102.857,254.719 102.400,254.246 102.400 C 254.161 102.400,253.030 103.108,251.734 103.974 M290.400 104.287 C 290.400 104.474,290.917 104.933,291.549 105.306 C 294.810 107.233,299.919 113.565,302.164 118.464 C 309.590 134.666,302.855 155.009,287.461 162.870 C 286.615 163.302,286.008 163.741,286.113 163.846 C 286.217 163.951,287.270 163.467,288.452 162.771 C 308.250 151.112,311.603 124.071,295.244 107.995 C 292.783 105.576,290.400 103.752,290.400 104.287 M63.373 110.643 C 63.124 111.410,62.863 112.097,62.050 114.119 C 61.802 114.734,61.609 115.544,61.619 115.919 C 61.630 116.293,62.169 115.174,62.817 113.430 C 63.464 111.687,63.910 110.176,63.806 110.073 C 63.703 109.970,63.508 110.226,63.373 110.643 M125.600 110.790 C 122.902 111.177,119.758 112.241,118.338 113.247 C 117.754 113.661,117.144 114.000,116.981 114.000 C 116.819 114.000,115.715 114.830,114.529 115.843 C 102.816 125.850,104.779 145.064,118.254 152.310 C 120.942 153.755,120.795 153.326,118.045 151.700 C 106.016 144.586,103.473 128.372,112.800 118.250 C 123.539 106.596,141.744 109.243,148.825 123.487 C 149.458 124.759,149.981 125.555,149.987 125.256 C 150.018 123.930,147.183 119.578,144.602 116.990 C 139.612 111.986,132.788 109.760,125.600 110.790 M267.600 110.790 C 264.752 111.199,261.857 112.219,259.933 113.492 C 257.877 114.852,257.983 115.076,260.100 113.847 C 269.836 108.196,282.861 111.219,289.173 120.595 C 298.003 133.711,290.168 151.748,274.495 154.387 L 272.600 154.706 274.173 154.753 C 278.711 154.889,285.874 150.535,289.140 145.657 C 300.243 129.071,287.212 107.978,267.600 110.790 M255.258 117.132 C 254.016 118.414,252.677 120.079,252.283 120.832 C 251.612 122.110,251.612 122.135,252.274 121.200 C 252.663 120.650,254.141 118.985,255.557 117.500 C 256.973 116.015,257.993 114.800,257.824 114.800 C 257.655 114.800,256.500 115.849,255.258 117.132 M61.067 117.067 C 60.920 117.213,60.815 117.798,60.834 118.367 C 60.868 119.381,60.875 119.379,61.221 118.220 C 61.585 117.003,61.531 116.602,61.067 117.067 M60.267 119.867 C 60.120 120.013,60.016 120.688,60.036 121.367 L 60.072 122.600 60.459 121.256 C 60.845 119.913,60.769 119.364,60.267 119.867 M339.210 119.833 C 339.215 120.035,339.390 120.920,339.599 121.800 C 341.384 129.314,341.400 129.658,341.400 159.800 C 341.400 181.761,341.275 189.312,340.876 191.600 C 340.018 196.509,338.484 202.546,337.205 206.052 C 336.545 207.860,336.090 209.423,336.193 209.527 C 336.297 209.630,336.492 209.374,336.627 208.957 C 336.762 208.541,337.027 207.840,337.216 207.400 C 338.492 204.429,339.747 199.830,340.817 194.200 C 341.725 189.423,341.959 182.365,341.959 159.800 C 341.959 133.531,341.754 129.379,340.076 121.684 C 339.734 120.118,339.186 118.948,339.210 119.833 M24.579 121.821 C 21.848 123.169,22.000 120.924,22.000 159.800 C 22.000 191.553,22.062 194.982,22.654 195.984 C 24.037 198.325,24.473 198.400,36.614 198.400 L 47.705 198.400 47.443 196.900 C 46.287 190.266,46.200 187.643,46.200 159.600 C 46.200 137.380,46.324 129.852,46.731 127.400 C 47.023 125.640,47.361 123.525,47.483 122.700 L 47.705 121.200 36.753 121.209 C 27.818 121.217,25.575 121.329,24.579 121.821 M352.400 121.530 C 352.400 121.711,352.715 123.736,353.100 126.030 C 353.722 129.737,353.799 133.463,353.800 159.600 C 353.800 187.829,353.671 191.762,352.568 197.100 L 352.300 198.400 363.331 198.400 C 375.480 198.400,375.879 198.333,377.310 196.031 L 378.200 194.600 378.200 159.800 C 378.200 120.831,378.380 123.241,375.357 121.806 C 373.944 121.136,352.400 120.876,352.400 121.530 M161.606 122.276 C 161.603 122.758,161.780 123.264,162.000 123.400 C 162.509 123.715,162.509 122.788,162.000 122.000 C 161.685 121.512,161.611 121.564,161.606 122.276 M237.800 122.400 C 237.650 122.873,237.617 123.350,237.727 123.460 C 237.837 123.570,238.050 123.273,238.200 122.800 C 238.350 122.327,238.383 121.850,238.273 121.740 C 238.163 121.630,237.950 121.927,237.800 122.400 M46.662 123.900 C 45.806 131.461,45.645 137.137,45.648 159.800 C 45.651 182.651,45.870 190.619,46.652 196.324 L 46.889 198.048 36.144 197.924 C 24.618 197.791,24.229 197.723,23.124 195.659 C 22.703 194.872,22.600 187.731,22.600 159.427 L 22.600 124.174 23.600 123.112 L 24.600 122.049 35.739 122.024 L 46.877 122.000 46.662 123.900 M376.318 123.082 L 377.400 124.164 377.400 159.422 C 377.400 188.385,377.303 194.861,376.856 195.696 C 375.790 197.686,375.087 197.800,363.841 197.800 L 353.400 197.800 353.489 196.400 C 353.538 195.630,353.776 193.020,354.019 190.600 C 355.283 177.998,354.866 137.030,353.340 123.900 L 353.119 122.000 364.178 122.000 L 375.236 122.000 376.318 123.082 M59.461 123.653 C 58.578 128.359,58.408 129.785,58.457 132.024 L 58.515 134.600 58.809 131.400 C 58.970 129.640,59.316 127.056,59.576 125.658 C 59.837 124.261,59.958 123.024,59.845 122.911 C 59.731 122.798,59.559 123.132,59.461 123.653 M162.468 125.000 C 162.462 125.660,162.611 126.560,162.800 127.000 C 163.270 128.094,163.270 126.267,162.800 124.800 C 162.488 123.825,162.479 123.830,162.468 125.000 M237.019 125.527 C 236.855 126.477,236.817 127.350,236.934 127.468 C 237.226 127.759,237.726 124.973,237.500 124.321 C 237.400 124.035,237.184 124.577,237.019 125.527 M249.845 125.850 C 249.490 126.891,249.214 128.115,249.232 128.571 C 249.249 129.027,249.321 129.220,249.392 129.000 C 250.371 125.965,250.813 124.279,250.668 124.134 C 250.570 124.037,250.200 124.808,249.845 125.850 M150.034 126.600 C 150.072 127.966,150.738 129.242,150.766 128.000 C 150.778 127.450,150.613 126.730,150.400 126.400 C 150.080 125.905,150.016 125.940,150.034 126.600 M163.351 132.800 C 163.351 135.330,163.416 136.365,163.496 135.100 C 163.575 133.835,163.575 131.765,163.496 130.500 C 163.416 129.235,163.351 130.270,163.351 132.800 M236.551 132.800 C 236.551 135.330,236.616 136.365,236.696 135.100 C 236.775 133.835,236.775 131.765,236.696 130.500 C 236.616 129.235,236.551 130.270,236.551 132.800 M150.888 132.800 C 150.888 135.715,150.936 135.957,151.223 134.500 C 151.407 133.565,151.407 132.035,151.223 131.100 C 150.936 129.643,150.888 129.885,150.888 132.800 M248.934 132.800 C 248.934 134.450,249.005 135.125,249.091 134.300 C 249.178 133.475,249.178 132.125,249.091 131.300 C 249.005 130.475,248.934 131.150,248.934 132.800 M58.188 159.800 C 58.188 173.660,58.239 179.272,58.300 172.271 C 58.361 165.270,58.361 153.930,58.300 147.071 C 58.238 140.212,58.188 145.940,58.188 159.800 M249.360 137.602 C 249.447 138.374,249.808 139.634,250.163 140.402 C 250.879 141.953,250.724 140.997,249.773 138.000 C 249.251 136.353,249.216 136.319,249.360 137.602 M150.222 137.929 C 150.058 138.659,150.022 139.356,150.142 139.476 C 150.443 139.777,150.920 137.756,150.699 137.117 C 150.601 136.833,150.386 137.198,150.222 137.929 M162.578 139.378 C 162.427 140.181,162.404 140.937,162.526 141.060 C 162.648 141.182,162.872 140.625,163.022 139.822 C 163.173 139.019,163.196 138.263,163.074 138.140 C 162.952 138.018,162.728 138.575,162.578 139.378 M236.856 138.800 C 236.856 139.350,237.011 140.160,237.200 140.600 C 237.513 141.329,237.544 141.312,237.544 140.400 C 237.544 139.850,237.389 139.040,237.200 138.600 C 236.887 137.871,236.856 137.888,236.856 138.800 M161.873 142.153 C 161.723 142.545,161.611 143.166,161.625 143.533 C 161.642 143.975,161.781 143.874,162.037 143.234 C 162.249 142.703,162.361 142.082,162.285 141.854 C 162.209 141.627,162.024 141.761,161.873 142.153 M237.612 142.200 C 237.612 142.640,237.787 143.270,238.000 143.600 C 238.321 144.097,238.388 144.062,238.388 143.400 C 238.388 142.960,238.213 142.330,238.000 142.000 C 237.679 141.503,237.612 141.538,237.612 142.200 M148.144 143.461 C 147.746 144.300,146.156 146.330,144.610 147.972 C 142.929 149.759,142.314 150.600,143.080 150.066 C 145.311 148.512,149.671 142.738,149.069 142.136 C 148.959 142.026,148.543 142.622,148.144 143.461 M250.800 142.305 C 250.800 142.712,253.487 146.751,254.555 147.949 C 257.725 151.508,264.437 154.851,268.200 154.747 C 269.650 154.707,269.592 154.672,267.575 154.375 C 261.543 153.487,254.190 148.380,251.853 143.454 C 251.196 142.070,250.800 141.638,250.800 142.305 M160.972 145.043 C 158.116 153.818,149.135 162.308,139.400 165.435 C 137.860 165.930,136.870 166.348,137.200 166.363 C 140.320 166.510,148.707 161.946,153.021 157.755 C 156.708 154.173,162.330 145.396,161.481 144.547 C 161.337 144.403,161.108 144.626,160.972 145.043 M238.598 145.250 C 240.537 151.756,248.050 159.983,255.487 163.745 C 258.705 165.372,258.564 164.972,255.311 163.245 C 248.179 159.459,239.200 149.504,239.200 145.383 C 239.200 145.088,239.001 144.724,238.757 144.574 C 238.454 144.386,238.404 144.600,238.598 145.250 M139.800 151.811 C 137.844 153.016,134.971 154.001,132.245 154.400 C 130.271 154.690,130.255 154.702,131.800 154.746 C 134.341 154.818,141.600 152.130,141.600 151.116 C 141.600 150.695,141.630 150.683,139.800 151.811 M120.958 153.532 C 121.276 154.046,125.287 154.903,126.403 154.695 C 127.284 154.531,127.256 154.503,126.164 154.454 C 125.484 154.425,124.044 154.132,122.964 153.804 C 120.648 153.102,120.696 153.108,120.958 153.532 M128.100 155.076 C 128.485 155.176,129.115 155.176,129.500 155.076 C 129.885 154.975,129.570 154.893,128.800 154.893 C 128.030 154.893,127.715 154.975,128.100 155.076 M270.500 155.076 C 270.885 155.176,271.515 155.176,271.900 155.076 C 272.285 154.975,271.970 154.893,271.200 154.893 C 270.430 154.893,270.115 154.975,270.500 155.076 M283.400 164.800 C 282.520 165.207,282.070 165.546,282.400 165.554 C 282.730 165.561,283.630 165.222,284.400 164.800 C 286.181 163.825,285.506 163.825,283.400 164.800 M117.543 165.451 C 118.281 165.773,119.451 166.122,120.143 166.226 C 120.932 166.345,120.580 166.118,119.200 165.619 C 116.658 164.699,115.565 164.588,117.543 165.451 M259.543 165.451 C 260.281 165.773,261.451 166.122,262.143 166.226 C 262.932 166.345,262.580 166.118,261.200 165.619 C 258.658 164.699,257.565 164.588,259.543 165.451 M279.400 166.000 C 278.667 166.315,278.684 166.346,279.600 166.366 C 280.150 166.378,280.870 166.213,281.200 166.000 C 281.987 165.491,280.584 165.491,279.400 166.000 M122.200 166.800 C 122.640 166.989,123.720 167.136,124.600 167.126 L 126.200 167.108 124.600 166.777 C 123.720 166.595,122.640 166.448,122.200 166.451 L 121.400 166.456 122.200 166.800 M133.400 166.800 L 132.200 167.105 133.600 167.125 C 134.370 167.135,135.360 166.989,135.800 166.800 C 136.864 166.343,135.197 166.343,133.400 166.800 M264.200 166.800 C 264.640 166.989,265.720 167.136,266.600 167.126 L 268.200 167.108 266.600 166.777 C 265.720 166.595,264.640 166.448,264.200 166.451 L 263.400 166.456 264.200 166.800 M275.200 166.800 L 273.800 167.095 275.400 167.119 C 276.280 167.133,277.360 166.989,277.800 166.800 C 278.842 166.352,277.326 166.352,275.200 166.800 M128.100 167.476 C 128.485 167.576,129.115 167.576,129.500 167.476 C 129.885 167.375,129.570 167.293,128.800 167.293 C 128.030 167.293,127.715 167.375,128.100 167.476 M270.500 167.476 C 270.885 167.576,271.515 167.576,271.900 167.476 C 272.285 167.375,271.970 167.293,271.200 167.293 C 270.430 167.293,270.115 167.375,270.500 167.476 M180.100 185.100 C 191.045 185.159,208.955 185.159,219.900 185.100 C 230.845 185.041,221.890 184.992,200.000 184.992 C 178.110 184.992,169.155 185.041,180.100 185.100 M58.457 187.576 C 58.408 189.815,58.578 191.241,59.461 195.947 C 59.868 198.116,59.945 196.343,59.547 193.977 C 59.308 192.559,58.979 189.960,58.814 188.200 L 58.515 185.000 58.457 187.576 M155.400 185.600 C 154.306 186.070,156.133 186.070,157.600 185.600 C 158.575 185.288,158.570 185.279,157.400 185.268 C 156.740 185.262,155.840 185.411,155.400 185.600 M242.400 185.600 C 243.867 186.070,245.694 186.070,244.600 185.600 C 244.160 185.411,243.260 185.262,242.600 185.268 C 241.430 185.279,241.425 185.288,242.400 185.600 M152.000 186.800 C 150.219 187.775,150.894 187.775,153.000 186.800 C 153.880 186.393,154.330 186.054,154.000 186.046 C 153.670 186.039,152.770 186.378,152.000 186.800 M247.000 186.800 C 249.106 187.775,249.781 187.775,248.000 186.800 C 247.230 186.378,246.330 186.039,246.000 186.046 C 245.670 186.054,246.120 186.393,247.000 186.800 M148.369 188.780 C 143.476 192.043,139.298 197.980,138.645 202.600 L 138.418 204.200 138.850 202.800 C 140.752 196.627,144.323 191.672,148.900 188.857 C 150.213 188.050,150.703 187.600,150.269 187.600 C 150.196 187.600,149.341 188.131,148.369 188.780 M249.600 187.753 C 249.600 187.853,250.275 188.350,251.100 188.857 C 254.297 190.823,257.997 195.049,259.457 198.400 C 260.351 200.451,260.730 201.437,261.150 202.800 L 261.582 204.200 261.355 202.600 C 261.050 200.440,258.806 195.721,257.265 194.000 C 256.576 193.230,256.010 192.476,256.006 192.323 C 255.993 191.751,249.600 187.191,249.600 187.753 M60.046 198.081 C 60.021 198.676,60.160 199.576,60.356 200.081 C 60.552 200.587,61.125 202.350,61.628 204.000 C 62.132 205.650,62.718 207.180,62.931 207.400 C 63.183 207.660,63.230 207.551,63.067 207.088 C 62.625 205.834,60.457 198.630,60.271 197.800 C 60.138 197.202,60.081 197.274,60.046 198.081 M179.900 197.500 C 190.955 197.559,209.045 197.559,220.100 197.500 C 231.155 197.441,222.110 197.392,200.000 197.392 C 177.890 197.392,168.845 197.441,179.900 197.500 M241.800 198.000 C 242.901 198.473,243.292 198.473,243.000 198.000 C 242.864 197.780,242.358 197.613,241.876 197.628 C 241.031 197.655,241.029 197.669,241.800 198.000 M154.018 199.878 C 148.834 204.315,149.393 213.984,155.000 216.882 C 155.440 217.110,155.065 216.577,154.168 215.698 C 149.127 210.764,149.795 203.028,155.600 199.116 C 156.150 198.745,156.407 198.433,156.172 198.421 C 155.937 198.409,154.967 199.065,154.018 199.878 M245.200 199.364 C 245.200 199.540,245.656 200.044,246.213 200.482 C 248.033 201.913,249.195 204.826,249.246 208.087 C 249.287 210.660,249.329 210.813,249.607 209.400 C 250.210 206.338,248.999 202.725,246.585 200.385 C 245.823 199.647,245.200 199.187,245.200 199.364 M138.142 207.800 C 138.141 209.780,138.208 210.640,138.292 209.712 C 138.376 208.784,138.377 207.164,138.295 206.112 C 138.212 205.060,138.143 205.820,138.142 207.800 M261.742 207.800 C 261.741 209.780,261.808 210.640,261.892 209.712 C 261.976 208.784,261.977 207.164,261.895 206.112 C 261.812 205.060,261.743 205.820,261.742 207.800 M64.017 210.246 C 63.852 214.495,77.134 232.075,85.800 239.078 C 90.716 243.050,103.935 250.598,104.677 249.856 C 104.816 249.717,104.399 249.419,103.751 249.193 C 102.584 248.786,97.365 246.188,94.116 244.397 C 83.436 238.509,72.258 226.221,65.737 213.200 C 64.801 211.330,64.027 210.001,64.017 210.246 M334.036 213.515 C 326.578 228.566,315.700 239.509,300.474 247.277 C 297.463 248.813,295.450 249.943,296.000 249.788 C 303.594 247.647,318.694 236.370,325.715 227.594 C 329.211 223.224,336.515 210.782,335.929 210.196 C 335.838 210.105,334.986 211.598,334.036 213.515 M248.400 212.401 C 248.120 213.076,247.061 214.456,246.046 215.468 C 245.031 216.480,244.560 217.119,245.000 216.889 C 246.609 216.044,249.651 211.918,249.083 211.350 C 248.987 211.253,248.679 211.726,248.400 212.401 M138.456 212.600 C 138.456 213.040,138.611 213.760,138.800 214.200 L 139.144 215.000 139.144 214.200 C 139.144 213.760,138.989 213.040,138.800 212.600 L 138.456 211.800 138.456 212.600 M261.088 212.533 C 260.930 212.936,260.811 213.656,260.825 214.133 C 260.849 214.956,260.871 214.950,261.240 214.025 C 261.454 213.489,261.573 212.769,261.503 212.425 C 261.399 211.911,261.325 211.930,261.088 212.533 M139.402 216.050 C 141.187 221.934,149.406 229.299,155.200 230.205 C 156.069 230.341,155.574 230.056,153.898 229.453 C 149.389 227.831,145.072 224.702,142.814 221.421 C 141.188 219.057,140.000 216.858,140.000 216.211 C 140.000 215.901,139.801 215.524,139.557 215.374 C 139.254 215.186,139.205 215.399,139.402 216.050 M260.173 215.843 C 258.507 220.977,253.337 226.479,248.136 228.653 C 247.354 228.979,246.810 229.343,246.927 229.461 C 247.428 229.961,252.853 226.591,254.944 224.481 C 258.112 221.283,261.371 216.038,260.643 215.310 C 260.520 215.186,260.308 215.426,260.173 215.843 M242.600 217.712 C 241.984 218.088,232.167 218.200,199.938 218.200 C 176.914 218.200,158.284 218.332,158.538 218.494 C 158.792 218.656,177.378 218.791,199.840 218.794 C 240.136 218.800,242.473 218.734,243.780 217.545 C 244.352 217.025,243.538 217.140,242.600 217.712 M244.200 230.000 L 243.400 230.344 244.200 230.344 C 244.640 230.344,245.360 230.189,245.800 230.000 L 246.600 229.656 245.800 229.656 C 245.360 229.656,244.640 229.811,244.200 230.000 M158.400 230.820 C 160.750 231.239,239.250 231.239,241.600 230.820 C 242.590 230.644,223.870 230.500,200.000 230.500 C 176.130 230.500,157.410 230.644,158.400 230.820 M105.262 250.195 C 105.619 250.552,110.986 252.400,111.598 252.378 C 111.929 252.365,110.760 251.830,109.000 251.188 C 105.920 250.065,104.847 249.780,105.262 250.195 M292.200 250.800 C 291.320 251.207,290.870 251.541,291.200 251.541 C 291.530 251.541,292.520 251.207,293.400 250.800 C 294.280 250.393,294.730 250.059,294.400 250.059 C 294.070 250.059,293.080 250.393,292.200 250.800 M288.600 252.000 L 287.800 252.344 288.600 252.366 C 289.040 252.378,289.670 252.213,290.000 252.000 C 290.795 251.486,289.796 251.486,288.600 252.000 M112.800 252.800 C 113.130 253.013,113.850 253.173,114.400 253.154 L 115.400 253.120 114.400 252.800 C 112.858 252.306,112.036 252.306,112.800 252.800 M285.600 252.800 L 284.600 253.120 285.600 253.154 C 286.150 253.173,286.870 253.013,287.200 252.800 C 287.964 252.306,287.142 252.306,285.600 252.800 M116.000 253.600 C 116.330 253.813,117.230 253.969,118.000 253.947 L 119.400 253.905 118.200 253.600 C 116.324 253.123,115.261 253.123,116.000 253.600 M282.000 253.600 C 281.020 253.914,281.024 253.921,282.200 253.954 C 282.860 253.973,283.670 253.813,284.000 253.600 C 284.758 253.110,283.530 253.110,282.000 253.600 M120.200 254.384 C 120.953 254.723,125.125 254.969,124.767 254.653 C 124.675 254.572,123.430 254.398,122.000 254.265 C 120.324 254.109,119.684 254.152,120.200 254.384 M276.800 254.400 L 275.000 254.680 277.200 254.712 C 278.410 254.729,279.760 254.589,280.200 254.400 C 281.201 253.970,279.567 253.970,276.800 254.400 M126.800 255.220 C 129.152 255.639,270.848 255.639,273.200 255.220 C 274.190 255.044,241.250 254.900,200.000 254.900 C 158.750 254.900,125.810 255.044,126.800 255.220 M184.400 288.658 C 180.966 289.879,177.156 293.382,177.218 295.262 C 177.227 295.558,177.574 295.159,177.988 294.376 C 178.955 292.547,181.020 290.530,182.800 289.673 C 184.922 288.653,215.080 288.655,217.209 289.676 C 223.787 292.830,225.058 301.633,219.636 306.483 C 216.663 309.142,216.244 309.200,200.000 309.200 C 183.756 309.200,183.337 309.142,180.364 306.483 C 177.857 304.240,176.623 301.185,176.941 298.008 C 177.086 296.570,177.032 296.019,176.787 296.408 C 175.197 298.923,177.567 305.272,180.936 307.523 C 184.082 309.625,183.852 309.600,200.000 309.600 C 216.148 309.600,215.918 309.625,219.064 307.523 C 225.333 303.334,224.828 293.672,218.134 289.737 L 216.200 288.600 200.600 288.523 C 192.020 288.480,184.730 288.541,184.400 288.658 M124.000 298.335 C 123.450 298.726,120.480 300.829,117.400 303.010 C 114.320 305.190,111.710 307.083,111.600 307.217 C 111.490 307.351,110.230 308.243,108.800 309.200 C 107.370 310.157,106.110 311.058,106.000 311.202 C 105.890 311.346,104.360 312.440,102.600 313.632 L 99.400 315.800 67.800 316.007 L 36.200 316.214 67.600 316.306 L 99.000 316.397 100.400 315.544 C 101.170 315.075,104.410 312.826,107.600 310.547 C 110.790 308.267,115.918 304.602,118.996 302.401 C 122.074 300.200,124.706 298.400,124.845 298.400 C 124.984 298.400,125.178 301.415,125.276 305.100 C 125.557 315.655,126.317 316.396,136.871 316.399 C 142.402 316.400,143.650 316.508,144.171 317.029 C 145.000 317.857,145.145 385.095,144.320 385.920 C 143.623 386.617,36.377 386.617,35.680 385.920 C 34.967 385.207,34.987 317.599,35.700 316.799 C 36.125 316.322,36.096 316.318,35.500 316.768 C 34.477 317.542,34.408 385.151,35.429 386.171 C 36.516 387.259,144.203 387.116,144.786 386.026 C 145.062 385.510,145.200 373.924,145.200 351.249 L 145.200 317.245 144.311 316.623 C 143.603 316.126,142.201 316.000,137.411 315.998 C 130.253 315.995,128.853 315.679,127.218 313.695 L 126.000 312.218 126.000 305.542 C 126.000 297.246,125.923 296.970,124.000 298.335 M50.042 330.431 C 47.698 331.860,46.773 333.202,46.841 335.074 L 46.882 336.200 47.171 335.000 C 47.617 333.155,48.279 332.141,49.699 331.128 L 51.000 330.200 88.600 330.081 C 109.280 330.015,127.010 330.078,127.999 330.220 C 132.843 330.916,134.600 336.813,130.993 340.269 L 129.186 342.000 90.347 342.000 C 45.349 342.000,48.363 342.321,47.172 337.400 L 46.882 336.200 46.841 337.362 C 46.792 338.752,48.358 340.951,50.001 341.800 C 51.747 342.703,128.064 342.706,129.874 341.803 C 134.480 339.505,134.679 333.203,130.226 330.594 L 128.530 329.600 89.965 329.601 C 51.673 329.603,51.390 329.609,50.042 330.431 M51.459 360.686 C 45.307 361.631,45.305 371.267,51.456 373.110 C 53.720 373.788,126.420 373.821,128.440 373.145 C 132.217 371.880,134.767 367.625,133.200 365.200 C 132.923 364.771,132.811 365.206,132.806 366.726 C 132.797 369.895,131.187 372.149,128.600 372.617 C 125.652 373.149,50.614 372.609,49.773 372.049 C 46.417 369.815,46.298 364.351,49.556 362.032 C 50.719 361.203,50.866 361.200,90.162 361.200 L 129.600 361.200 131.200 362.800 C 132.911 364.511,133.393 364.485,131.900 362.763 C 129.922 360.483,132.166 360.604,90.800 360.555 C 69.790 360.530,52.087 360.589,51.459 360.686 " stroke="none" fill="#565f50" fill-rule="evenodd"></path><path id="path4" d="M47.400 18.000 C 48.259 18.880,49.052 19.600,49.162 19.600 C 49.272 19.600,48.659 18.880,47.800 18.000 C 46.941 17.120,46.148 16.400,46.038 16.400 C 45.928 16.400,46.541 17.120,47.400 18.000 M352.181 18.100 L 350.600 19.800 352.300 18.219 C 353.881 16.748,354.184 16.400,353.881 16.400 C 353.816 16.400,353.051 17.165,352.181 18.100 M348.120 28.400 C 348.120 29.610,348.195 30.105,348.287 29.500 C 348.378 28.895,348.378 27.905,348.287 27.300 C 348.195 26.695,348.120 27.190,348.120 28.400 M51.709 28.400 C 51.709 29.390,51.787 29.795,51.882 29.300 C 51.978 28.805,51.978 27.995,51.882 27.500 C 51.787 27.005,51.709 27.410,51.709 28.400 M22.493 30.000 C 22.493 30.770,22.575 31.085,22.676 30.700 C 22.776 30.315,22.776 29.685,22.676 29.300 C 22.575 28.915,22.493 29.230,22.493 30.000 M26.400 38.600 C 27.146 39.370,27.847 40.000,27.957 40.000 C 28.067 40.000,27.546 39.370,26.800 38.600 C 26.054 37.830,25.353 37.200,25.243 37.200 C 25.133 37.200,25.654 37.830,26.400 38.600 M373.178 38.700 L 371.800 40.200 373.300 38.822 C 374.696 37.538,374.984 37.200,374.678 37.200 C 374.612 37.200,373.937 37.875,373.178 38.700 M36.300 43.082 C 36.795 43.178,37.605 43.178,38.100 43.082 C 38.595 42.987,38.190 42.909,37.200 42.909 C 36.210 42.909,35.805 42.987,36.300 43.082 M361.900 43.082 C 362.395 43.178,363.205 43.178,363.700 43.082 C 364.195 42.987,363.790 42.909,362.800 42.909 C 361.810 42.909,361.405 42.987,361.900 43.082 M125.500 65.089 C 126.215 65.178,127.385 65.178,128.100 65.089 C 128.815 65.001,128.230 64.928,126.800 64.928 C 125.370 64.928,124.785 65.001,125.500 65.089 M271.900 65.089 C 272.615 65.178,273.785 65.178,274.500 65.089 C 275.215 65.001,274.630 64.928,273.200 64.928 C 271.770 64.928,271.185 65.001,271.900 65.089 M83.375 83.300 L 82.200 84.600 83.500 83.425 C 84.712 82.330,84.984 82.000,84.675 82.000 C 84.606 82.000,84.021 82.585,83.375 83.300 M319.583 86.100 C 320.564 87.145,321.419 88.000,321.483 88.000 C 321.784 88.000,321.466 87.641,319.700 85.983 L 317.800 84.200 319.583 86.100 M322.400 89.325 C 322.400 89.394,322.985 89.979,323.700 90.625 L 325.000 91.800 323.825 90.500 C 322.730 89.288,322.400 89.016,322.400 89.325 M128.500 97.876 C 128.885 97.976,129.515 97.976,129.900 97.876 C 130.285 97.775,129.970 97.693,129.200 97.693 C 128.430 97.693,128.115 97.775,128.500 97.876 M131.700 98.276 C 132.085 98.376,132.715 98.376,133.100 98.276 C 133.485 98.175,133.170 98.093,132.400 98.093 C 131.630 98.093,131.315 98.175,131.700 98.276 M23.600 123.112 L 22.600 124.174 22.600 159.427 C 22.600 187.731,22.703 194.872,23.124 195.659 C 24.229 197.723,24.618 197.791,36.144 197.924 L 46.889 198.048 46.652 196.324 C 45.870 190.619,45.651 182.651,45.648 159.800 C 45.645 137.137,45.806 131.461,46.662 123.900 L 46.877 122.000 35.739 122.024 L 24.600 122.049 23.600 123.112 M353.340 123.900 C 354.866 137.030,355.283 177.998,354.019 190.600 C 353.776 193.020,353.538 195.630,353.489 196.400 L 353.400 197.800 363.841 197.800 C 375.087 197.800,375.790 197.686,376.856 195.696 C 377.303 194.861,377.400 188.385,377.400 159.422 L 377.400 124.164 376.318 123.082 L 375.236 122.000 364.178 122.000 L 353.119 122.000 353.340 123.900 M94.649 125.815 C 94.512 126.173,94.415 126.766,94.434 127.133 C 94.453 127.500,94.627 127.269,94.821 126.620 C 95.198 125.358,95.065 124.733,94.649 125.815 M163.293 127.200 C 163.293 127.970,163.375 128.285,163.476 127.900 C 163.576 127.515,163.576 126.885,163.476 126.500 C 163.375 126.115,163.293 126.430,163.293 127.200 M236.493 127.200 C 236.493 127.970,236.575 128.285,236.676 127.900 C 236.776 127.515,236.776 126.885,236.676 126.500 C 236.575 126.115,236.493 126.430,236.493 127.200 M163.734 132.800 C 163.734 134.450,163.805 135.125,163.891 134.300 C 163.978 133.475,163.978 132.125,163.891 131.300 C 163.805 130.475,163.734 131.150,163.734 132.800 M236.134 132.800 C 236.134 134.450,236.205 135.125,236.291 134.300 C 236.378 133.475,236.378 132.125,236.291 131.300 C 236.205 130.475,236.134 131.150,236.134 132.800 M305.709 132.800 C 305.709 133.790,305.787 134.195,305.882 133.700 C 305.978 133.205,305.978 132.395,305.882 131.900 C 305.787 131.405,305.709 131.810,305.709 132.800 M58.588 159.800 C 58.588 173.880,58.639 179.582,58.700 172.471 C 58.761 165.360,58.761 153.840,58.700 146.871 C 58.638 139.902,58.588 145.720,58.588 159.800 M341.388 159.800 C 341.388 173.220,341.438 178.652,341.500 171.871 C 341.561 165.090,341.561 154.110,341.500 147.471 C 341.438 140.832,341.388 146.380,341.388 159.800 M163.293 138.400 C 163.293 139.170,163.375 139.485,163.476 139.100 C 163.576 138.715,163.576 138.085,163.476 137.700 C 163.375 137.315,163.293 137.630,163.293 138.400 M236.493 138.400 C 236.493 139.170,236.575 139.485,236.676 139.100 C 236.776 138.715,236.776 138.085,236.676 137.700 C 236.575 137.315,236.493 137.630,236.493 138.400 M94.406 138.633 C 94.409 139.055,94.595 139.670,94.818 140.000 C 95.115 140.438,95.152 140.276,94.956 139.400 C 94.627 137.929,94.398 137.610,94.406 138.633 M305.246 138.467 C 305.221 138.834,305.096 139.464,304.970 139.867 C 304.752 140.562,304.763 140.563,305.197 139.887 C 305.448 139.496,305.573 138.866,305.473 138.487 C 305.311 137.868,305.288 137.866,305.246 138.467 M162.446 141.667 C 162.421 142.034,162.296 142.664,162.170 143.067 C 161.952 143.762,161.963 143.763,162.397 143.087 C 162.648 142.696,162.773 142.066,162.673 141.687 C 162.511 141.068,162.488 141.066,162.446 141.667 M105.200 158.125 C 105.200 158.194,105.785 158.779,106.500 159.425 L 107.800 160.600 106.625 159.300 C 105.530 158.088,105.200 157.816,105.200 158.125 M247.200 158.125 C 247.200 158.194,247.785 158.779,248.500 159.425 L 249.800 160.600 248.625 159.300 C 247.530 158.088,247.200 157.816,247.200 158.125 M114.800 164.631 C 114.800 164.901,116.878 165.656,117.076 165.457 C 117.167 165.367,116.692 165.101,116.020 164.867 C 115.349 164.633,114.800 164.527,114.800 164.631 M135.800 166.800 C 135.296 167.017,135.222 167.144,135.600 167.144 C 135.930 167.144,136.560 166.989,137.000 166.800 C 137.504 166.583,137.578 166.456,137.200 166.456 C 136.870 166.456,136.240 166.611,135.800 166.800 M277.800 166.800 C 277.296 167.017,277.222 167.144,277.600 167.144 C 277.930 167.144,278.560 166.989,279.000 166.800 C 279.504 166.583,279.578 166.456,279.200 166.456 C 278.870 166.456,278.240 166.611,277.800 166.800 M125.505 167.483 C 126.002 167.579,126.722 167.575,127.105 167.475 C 127.487 167.375,127.080 167.296,126.200 167.301 C 125.320 167.305,125.007 167.387,125.505 167.483 M130.700 167.482 C 131.195 167.578,132.005 167.578,132.500 167.482 C 132.995 167.387,132.590 167.309,131.600 167.309 C 130.610 167.309,130.205 167.387,130.700 167.482 M267.500 167.482 C 267.995 167.578,268.805 167.578,269.300 167.482 C 269.795 167.387,269.390 167.309,268.400 167.309 C 267.410 167.309,267.005 167.387,267.500 167.482 M273.105 167.483 C 273.602 167.579,274.322 167.575,274.705 167.475 C 275.087 167.375,274.680 167.296,273.800 167.301 C 272.920 167.305,272.607 167.387,273.105 167.483 M157.705 185.087 C 158.314 185.179,159.214 185.177,159.705 185.082 C 160.197 184.987,159.700 184.911,158.600 184.914 C 157.500 184.917,157.097 184.995,157.705 185.087 M240.505 185.087 C 241.114 185.179,242.014 185.177,242.505 185.082 C 242.997 184.987,242.500 184.911,241.400 184.914 C 240.300 184.917,239.897 184.995,240.505 185.087 M59.844 195.800 C 60.173 197.271,60.402 197.590,60.394 196.567 C 60.391 196.145,60.205 195.530,59.982 195.200 C 59.685 194.762,59.648 194.924,59.844 195.800 M157.781 198.128 C 148.950 201.551,148.343 213.529,156.798 217.536 C 158.948 218.555,241.052 218.555,243.202 217.536 C 251.217 213.737,251.334 202.509,243.400 198.590 C 241.439 197.622,160.218 197.183,157.781 198.128 M243.882 199.640 C 245.610 200.476,248.000 203.325,248.000 204.548 C 248.000 204.881,248.180 205.264,248.400 205.400 C 248.894 205.705,248.930 209.756,248.447 210.705 C 248.252 211.087,247.866 211.888,247.587 212.485 C 246.870 214.021,245.178 215.651,243.212 216.700 L 241.524 217.600 200.000 217.600 L 158.476 217.600 156.796 216.703 C 153.133 214.748,152.056 212.841,153.004 209.988 C 154.772 204.665,160.828 199.770,166.400 199.159 C 173.544 198.376,242.150 198.801,243.882 199.640 M137.693 208.000 C 137.693 208.770,137.775 209.085,137.876 208.700 C 137.976 208.315,137.976 207.685,137.876 207.300 C 137.775 206.915,137.693 207.230,137.693 208.000 M262.093 208.000 C 262.093 208.770,262.175 209.085,262.276 208.700 C 262.376 208.315,262.376 207.685,262.276 207.300 C 262.175 206.915,262.093 207.230,262.093 208.000 M144.800 224.600 C 145.546 225.370,146.247 226.000,146.357 226.000 C 146.467 226.000,145.946 225.370,145.200 224.600 C 144.454 223.830,143.753 223.200,143.643 223.200 C 143.533 223.200,144.054 223.830,144.800 224.600 M80.000 233.400 C 81.417 234.830,82.667 236.000,82.777 236.000 C 82.887 236.000,81.817 234.830,80.400 233.400 C 78.983 231.970,77.733 230.800,77.623 230.800 C 77.513 230.800,78.583 231.970,80.000 233.400 M319.787 233.300 L 317.400 235.800 319.900 233.413 C 321.275 232.099,322.400 230.974,322.400 230.913 C 322.400 230.617,322.005 230.978,319.787 233.300 M125.505 254.683 C 126.002 254.779,126.722 254.775,127.105 254.675 C 127.487 254.575,127.080 254.496,126.200 254.501 C 125.320 254.505,125.007 254.587,125.505 254.683 M273.105 254.683 C 273.602 254.779,274.322 254.775,274.705 254.675 C 275.087 254.575,274.680 254.496,273.800 254.501 C 272.920 254.505,272.607 254.587,273.105 254.683 M192.500 289.099 C 196.625 289.164,203.375 289.164,207.500 289.099 C 211.625 289.034,208.250 288.981,200.000 288.981 C 191.750 288.981,188.375 289.034,192.500 289.099 " stroke="none" fill="#8c9cab" fill-rule="evenodd"></path></g></svg>