<svg xmlns="http://www.w3.org/2000/svg" width="310" height="105" viewBox="0 0 310 105" version="1.1"><path d="M 63.850 76.901 C 63.768 84.105, 63.655 90.563, 63.600 91.250 C 63.545 91.938, 64.737 92.642, 66.250 92.816 C 68.838 93.114, 69 92.901, 69 89.196 L 69 85.258 75.134 84.564 C 82.237 83.761, 85.319 82.059, 86.993 78.017 C 88.556 74.244, 87.517 69.835, 84.369 66.876 C 82.175 64.813, 80.665 64.454, 72.921 64.151 L 64 63.801 63.850 76.901 M 97.641 65.898 C 93.247 68.795, 91.014 72.903, 91.007 78.102 C 90.984 93.973, 113.136 98.678, 120.105 84.283 C 123.481 77.309, 120.770 69.001, 113.971 65.485 C 109.858 63.358, 101.160 63.578, 97.641 65.898 M 126.896 64.750 C 126.839 65.162, 126.805 71.575, 126.820 79 L 126.849 92.500 129.674 92.500 L 132.500 92.500 132.503 81 C 132.507 65.135, 132.299 64, 129.387 64 C 128.074 64, 126.953 64.338, 126.896 64.750 M 139 78.500 L 139 93 141.962 93 L 144.925 93 145.212 83.750 L 145.500 74.500 152.935 83.750 C 158.450 90.612, 160.968 93, 162.685 93 C 164.999 93, 165 92.991, 165 78.500 L 165 64 162 64 L 159 64 159 73.099 L 159 82.197 151.750 73.156 C 145.860 65.811, 143.984 64.104, 141.750 64.058 L 139 64 139 78.500 M 168 66.500 C 168 68.829, 168.337 69, 172.941 69 L 177.883 69 177.851 80.750 L 177.818 92.500 180.409 92.816 L 183 93.133 183.118 82.316 C 183.184 76.367, 183.164 70.938, 183.075 70.250 C 182.963 69.394, 184.501 69, 187.956 69 C 192.670 69, 193 68.836, 193 66.500 L 193 64 180.500 64 L 168 64 168 66.500 M 196 78.500 L 196 93 207 93 L 218 93 218 90.500 C 218 88.042, 217.867 88, 210 88 L 202 88 202 84.500 L 202 81 208.500 81 C 214.767 81, 215 80.910, 215 78.500 C 215 76.090, 214.767 76, 208.500 76 L 202 76 202 72.500 L 202 69 209.500 69 C 216.833 69, 217 68.944, 217 66.500 L 217 64 206.500 64 L 196 64 196 78.500 M 223 78.500 L 223 93 226 93 C 228.889 93, 229 92.833, 229 88.500 C 229 84.189, 229.124 84, 231.933 84 C 234.196 84, 235.708 85.028, 238.554 88.500 C 241.044 91.539, 243.013 93, 244.620 93 C 247.623 93, 247.599 92.472, 244.385 87.834 L 241.771 84.061 244.385 80.954 C 248.605 75.939, 247.514 68.916, 242.010 65.665 C 240.005 64.481, 236.854 64, 231.096 64 L 223 64 223 78.500 M 271.072 66.250 C 270.589 67.487, 267.900 73.559, 265.097 79.742 C 262.294 85.925, 260 91.438, 260 91.992 C 260 92.546, 261.148 93, 262.551 93 C 264.521 93, 265.435 92.203, 266.564 89.500 L 268.027 86 274.949 86 L 281.871 86 283.136 89.500 C 284.172 92.365, 284.910 93, 287.201 93 C 288.740 93, 290 92.584, 290 92.075 C 290 91.566, 287.234 85.041, 283.852 77.575 C 278.027 64.712, 277.554 64, 274.828 64 C 272.771 64, 271.700 64.642, 271.072 66.250 M 293.223 78.250 L 293.500 92.500 296.250 92.816 L 299 93.133 299 78.566 L 299 64 295.973 64 L 292.945 64 293.223 78.250 M 69 74 L 69 79 74.465 79 C 78.844 79, 80.135 78.616, 80.965 77.066 C 83.617 72.111, 80.903 69, 73.929 69 L 69 69 69 74 M 99.455 71.455 C 94.375 76.534, 97.367 86.228, 104.422 87.551 C 113.958 89.340, 119.820 76.937, 112.253 70.984 C 108.604 68.114, 102.574 68.336, 99.455 71.455 M 229 74.487 L 229 79.974 233.624 79.506 C 239.270 78.935, 241 77.623, 241 73.913 C 241 70.451, 238.657 69, 233.066 69 L 229 69 229 74.487 M 272.284 76 L 270.172 81 274.653 81 C 278.840 81, 279.089 80.852, 278.441 78.750 C 277.679 76.281, 275.112 71, 274.673 71 C 274.521 71, 273.446 73.250, 272.284 76" stroke="none" fill="#f4f4f4" fill-rule="evenodd"/><path d="M 6 17.059 C 6 17.641, 6.450 17.840, 7 17.500 C 7.550 17.160, 8 17.272, 8 17.748 C 8 18.225, 10.072 20.076, 12.605 21.861 L 17.211 25.107 16.524 29.804 C 16.146 32.387, 14.498 41.848, 12.863 50.830 L 9.890 67.160 13.695 71.805 C 20.677 80.329, 31.266 92.497, 31.935 92.766 C 32.299 92.913, 34.323 83.013, 36.433 70.766 C 38.543 58.520, 41.109 44.001, 42.135 38.502 C 43.161 33.003, 44 27.576, 44 26.443 C 44 25.048, 42.038 23.028, 37.927 20.191 L 31.853 16 18.927 16 C 10.495 16, 6 16.368, 6 17.059 M 37 16.830 C 37 17.287, 39.138 19.177, 41.750 21.029 C 44.362 22.881, 46.753 24.761, 47.063 25.205 C 47.373 25.650, 46.396 32.871, 44.891 41.251 C 43.387 49.632, 42.280 56.613, 42.432 56.765 C 42.583 56.917, 50.086 53.951, 59.104 50.176 L 75.500 43.311 76.635 38.806 C 77.260 36.328, 78.053 32.096, 78.398 29.400 L 79.025 24.500 72.673 20.250 L 66.321 16 51.661 16 C 43.597 16, 37 16.374, 37 16.830" stroke="none" fill="#2b8cc7" fill-rule="evenodd"/></svg>